<mxfile host="app.diagrams.net" agent="Mozilla/5.0 (Macintosh; Intel Mac OS X 10.15; rv:137.0) Gecko/20100101 Firefox/137.0" version="26.1.3">
  <diagram name="Page-1" id="zn6IXitogx5VQOchHlqr">
    <mxGraphModel grid="0" page="1" gridSize="10" guides="1" tooltips="1" connect="0" arrows="1" fold="1" pageScale="1" pageWidth="1169" pageHeight="827" math="0" shadow="0">
      <root>
        <mxCell id="0" />
        <mxCell id="1" parent="0" />
        <mxCell id="i8tW-RdKxGwg-YplNnFy-94" value="" style="rounded=1;whiteSpace=wrap;html=1;fillColor=#eeeeee;strokeWidth=2;strokeColor=#36393d;" vertex="1" parent="1">
          <mxGeometry x="872.54" y="616" width="181" height="170" as="geometry" />
        </mxCell>
        <mxCell id="i8tW-RdKxGwg-YplNnFy-84" value="" style="rounded=1;whiteSpace=wrap;html=1;fillColor=#eeeeee;strokeWidth=2;strokeColor=#36393d;" vertex="1" parent="1">
          <mxGeometry x="649" y="616" width="181" height="170" as="geometry" />
        </mxCell>
        <mxCell id="i8tW-RdKxGwg-YplNnFy-58" value="" style="rounded=1;whiteSpace=wrap;html=1;fillColor=#eeeeee;strokeWidth=2;strokeColor=#36393d;" vertex="1" parent="1">
          <mxGeometry x="178" y="616" width="433" height="170" as="geometry" />
        </mxCell>
        <mxCell id="i8tW-RdKxGwg-YplNnFy-56" value="" style="rounded=1;whiteSpace=wrap;html=1;fillColor=#eeeeee;strokeWidth=2;strokeColor=#36393d;" vertex="1" parent="1">
          <mxGeometry x="140" y="300" width="220" height="160" as="geometry" />
        </mxCell>
        <mxCell id="i8tW-RdKxGwg-YplNnFy-55" value="" style="rounded=1;whiteSpace=wrap;html=1;fillColor=#eeeeee;strokeWidth=2;strokeColor=#36393d;" vertex="1" parent="1">
          <mxGeometry x="560" y="300" width="400" height="160" as="geometry" />
        </mxCell>
        <mxCell id="i8tW-RdKxGwg-YplNnFy-54" value="" style="rounded=1;whiteSpace=wrap;html=1;fillColor=#eeeeee;strokeWidth=2;strokeColor=#36393d;" vertex="1" parent="1">
          <mxGeometry x="480" y="125" width="400" height="155" as="geometry" />
        </mxCell>
        <mxCell id="i8tW-RdKxGwg-YplNnFy-52" value="" style="rounded=1;whiteSpace=wrap;html=1;strokeWidth=2;fillStyle=auto;fillColor=#eeeeee;shadow=0;glass=0;strokeColor=#36393d;" vertex="1" parent="1">
          <mxGeometry x="150" y="126.33" width="150" height="155" as="geometry" />
        </mxCell>
        <mxCell id="i8tW-RdKxGwg-YplNnFy-30" value="" style="endArrow=none;html=1;rounded=0;strokeWidth=10;strokeColor=#fa6863;" edge="1" parent="1" source="i8tW-RdKxGwg-YplNnFy-32">
          <mxGeometry width="50" height="50" relative="1" as="geometry">
            <mxPoint x="260" y="393" as="sourcePoint" />
            <mxPoint x="640" y="392.58" as="targetPoint" />
          </mxGeometry>
        </mxCell>
        <mxCell id="i8tW-RdKxGwg-YplNnFy-12" value="" style="shape=stencil(vZXdcoMgEIWfhltGlkiSy45N34MaUpkacNAk5u2Dgqn1JzN1sDPeeJb9WM4yLKJJmfFCIIh4WYi0QvQdAVy5kfwztzLYSOZEYHgT7ygFp94m1bIy+lvc5LHyWVJlwsiqidIDit7smuajSaqVshtKrcpfkV7cwrhUNjeqHSxym9z9H4bYCYXd4iwqYVyAOBXBx1JyKCxZr+AnK3TNIzJZyWQczIyhzQFdXs3kf/J4u5rJ4cg/rPA2b1fymSzH0sQqc88fTU7aiC+jL+o4WcxJ5rl7ZV9UXPDm/R0FuvBZX0XfpOGliV750UFyqXoQhhlpBgEsQaUX4woi3jiKAfaEMQ8jA1oNk8Pn7uUYt8nMt76m06u9TPZ4t6HdPfnLmYfASXWuRVaf6ZKdyXP9bdNGF6RV3RxvhQc=);whiteSpace=wrap;html=1;strokeWidth=10;fillColor=none;strokeColor=#24b064;points=[[0,0,0,0,0],[1,1,0,0,0]];rotation=90;" vertex="1" parent="1">
          <mxGeometry x="921.97" y="278.96" width="110.41" height="109.35" as="geometry" />
        </mxCell>
        <mxCell id="v1HxjldeMUTDakEMhsAY-46" value="" style="endArrow=none;html=1;rounded=0;strokeWidth=10;strokeColor=#3d95fd;" edge="1" parent="1">
          <mxGeometry width="50" height="50" relative="1" as="geometry">
            <mxPoint x="620" y="204" as="sourcePoint" />
            <mxPoint x="930" y="204" as="targetPoint" />
          </mxGeometry>
        </mxCell>
        <mxCell id="v1HxjldeMUTDakEMhsAY-1" value="" style="group" vertex="1" connectable="0" parent="1">
          <mxGeometry x="30" y="160" width="80" height="90" as="geometry" />
        </mxCell>
        <mxCell id="v1HxjldeMUTDakEMhsAY-2" value="" style="shape=image;aspect=fixed;image=data:image/svg+xml,PD94bWwgdmVyc2lvbj0iMS4wIiBlbmNvZGluZz0iVVRGLTgiIHN0YW5kYWxvbmU9Im5vIj8+CjwhLS0gQ3JlYXRlZCB3aXRoIElua3NjYXBlIChodHRwOi8vd3d3Lmlua3NjYXBlLm9yZy8pIC0tPgoKPHN2ZwogICB3aWR0aD0iMjEuMTY2NjdtbSIKICAgaGVpZ2h0PSIyMy44MTI1MDJtbSIKICAgdmlld0JveD0iMCAwIDIxLjE2NjY3IDIzLjgxMjUwMiIKICAgdmVyc2lvbj0iMS4xIgogICBpZD0ic3ZnNzM2MiIKICAgeG1sbnM9Imh0dHA6Ly93d3cudzMub3JnLzIwMDAvc3ZnIgogICB4bWxuczpzdmc9Imh0dHA6Ly93d3cudzMub3JnLzIwMDAvc3ZnIj4KICA8ZGVmcwogICAgIGlkPSJkZWZzNzM1OSIgLz4KICA8ZwogICAgIGlkPSJsYXllcjEiCiAgICAgc3R5bGU9ImRpc3BsYXk6aW5saW5lIgogICAgIHRyYW5zZm9ybT0idHJhbnNsYXRlKDM3LjA0MTY3MywtMTQwLjIyOTE3KSI+CiAgICA8ZwogICAgICAgaWQ9ImcxODQ4OC0zLTIiCiAgICAgICB0cmFuc2Zvcm09InRyYW5zbGF0ZSgtMTY2LjY4NzQ5LDQ3LjYyNDk5NykiCiAgICAgICBzdHlsZT0iZGlzcGxheTppbmxpbmUiPgogICAgICA8cGF0aAogICAgICAgICBpZD0icGF0aDYyNzYtNC0wLTYiCiAgICAgICAgIHN0eWxlPSJmaWxsOiNmZmZmZmY7c3Ryb2tlLXdpZHRoOjAuMjMwNzAyIgogICAgICAgICBkPSJtIDEzMi4yOTE2Niw5My45MjcwNzIgdiAyMS4xNjY2NjggaCAxNS44NzUwMSBWIDk5LjIxODc0OCBsIC01LjI5MTY4LC01LjI5MTY3NiB6IiAvPgogICAgICA8cGF0aAogICAgICAgICBpZD0icGF0aDU4NjItMy03IgogICAgICAgICBkPSJtIDE0OS40ODk1OCw5Ny44OTU4MzIgYyAwLC0wLjI2NDU3NiAtMC4yNjQ1OCwtMC41MjkxNjQgLTAuNTI5MTcsLTAuNzkzNzUyIGwgLTQuNDk3OTEsLTMuOTY4NzQ4IGMgLTAuMjY0NTgsLTAuMjY0NTg4IC0wLjUyOTE3LC0wLjUyOTE2NCAtMC44Mjc4OCwtMC41MjkxNjQgaCAtMy40MDU0NSAtNy45Mzc1MSBjIC0wLjc5Mzc1LDAgLTEuMzIyOTIsMC41MjkxNjQgLTEuMzIyOTIsMS4zMjI5MTYgMCw3LjA1NTU1NiAwLDE0LjExMTEwNiAwLDIxLjE2NjY2NiAwLDAuNzkzNzUgMC41MjkxNywxLjMyMjkyIDEuMzIyOTIsMS4zMjI5MiBoIDcuOTM3NTEgNy45Mzc1IGMgMC43OTM3NCwwIDEuMzIyOTEsLTAuNTI5MTcgMS4zMjI5MSwtMS4zMjI5MiB6IG0gLTEuMzIyOTEsMTcuMTk3OTE4IEggMTMyLjI5MTY2IFYgOTMuOTI3MDg0IGggMTAuNTgzMzMgdiA0Ljc2MjUgYyAwLDAuMzE3NTA4IDAuMjAzNTMsMC41MjkxNjQgMC41MjkxNywwLjUyOTE2NCBoIDQuNzYyNTEgeiIKICAgICAgICAgc3R5bGU9InN0cm9rZS13aWR0aDowLjIzMTY3IiAvPgogICAgICA8cGF0aAogICAgICAgICBpZD0icmVjdDE4MzQ3LTYtMSIKICAgICAgICAgc3R5bGU9ImZpbGwtcnVsZTpldmVub2RkO3N0cm9rZS13aWR0aDowLjEyMjAyNztwYWludC1vcmRlcjpmaWxsIG1hcmtlcnMgc3Ryb2tlIgogICAgICAgICBkPSJtIDEzMS4wMTc1MiwxMDEuODY0NiBjIDYuMTQxMDksMCAxMi4yODIxNywwIDE4LjQyMzI2LDAgMC43NTk5MywwIDEuMzcxNzEsMC40OTcwNiAxLjM3MTcxLDEuMTE0NSB2IDIuODU0MjIgMi44NTQyNSBjIDAsMC42MTc0NCAtMC42MTE3OCwxLjExNDUgLTEuMzcxNzEsMS4xMTQ1IC02LjE0MTA5LDAgLTEyLjI4MjE3LDAgLTE4LjQyMzI2LDAgLTAuNzU5OTIsMCAtMS4zNzE3LC0wLjQ5NzA2IC0xLjM3MTcsLTEuMTE0NSB2IC0yLjg1NDI1IC0yLjg1NDIyIGMgMCwtMC42MTc0NCAwLjYxMTc4LC0xLjExNDUgMS4zNzE3LC0xLjExNDUgeiIgLz4KICAgIDwvZz4KICA8L2c+Cjwvc3ZnPgo=;" vertex="1" parent="v1HxjldeMUTDakEMhsAY-1">
          <mxGeometry width="80" height="90" as="geometry" />
        </mxCell>
        <mxCell id="v1HxjldeMUTDakEMhsAY-3" value="&lt;font style=&quot;font-size: 20px;&quot; color=&quot;#ffffff&quot; data-font-src=&quot;https://fonts.googleapis.com/css?family=Maven+Pro&quot; face=&quot;Maven Pro&quot;&gt;&lt;b&gt;fasta&lt;/b&gt;&lt;/font&gt;" style="text;html=1;strokeColor=none;fillColor=none;align=center;verticalAlign=middle;whiteSpace=wrap;rounded=0;" vertex="1" parent="v1HxjldeMUTDakEMhsAY-1">
          <mxGeometry x="10" y="35" width="60" height="30" as="geometry" />
        </mxCell>
        <mxCell id="v1HxjldeMUTDakEMhsAY-8" value="" style="endArrow=none;html=1;rounded=0;strokeWidth=10;strokeColor=#24b064;" edge="1" parent="1">
          <mxGeometry width="50" height="50" relative="1" as="geometry">
            <mxPoint x="220" y="214" as="sourcePoint" />
            <mxPoint x="930" y="214" as="targetPoint" />
          </mxGeometry>
        </mxCell>
        <mxCell id="v1HxjldeMUTDakEMhsAY-11" value="&lt;font style=&quot;font-size: 14px;&quot;&gt;metaMDBG&lt;/font&gt;" style="text;strokeColor=none;align=center;fillColor=none;html=1;verticalAlign=middle;whiteSpace=wrap;rounded=0;" vertex="1" parent="1">
          <mxGeometry x="191.25" y="230" width="60" height="30" as="geometry" />
        </mxCell>
        <mxCell id="v1HxjldeMUTDakEMhsAY-12" value="" style="shape=stencil(vZXdcoMgEIWfhltGlkiSy45N34MaUpkacNAk5u2Dgqn1JzN1sDPeeJb9WM4yLKJJmfFCIIh4WYi0QvQdAVy5kfwztzLYSOZEYHgT7ygFp94m1bIy+lvc5LHyWVJlwsiqidIDit7smuajSaqVshtKrcpfkV7cwrhUNjeqHSxym9z9H4bYCYXd4iwqYVyAOBXBx1JyKCxZr+AnK3TNIzJZyWQczIyhzQFdXs3kf/J4u5rJ4cg/rPA2b1fymSzH0sQqc88fTU7aiC+jL+o4WcxJ5rl7ZV9UXPDm/R0FuvBZX0XfpOGliV750UFyqXoQhhlpBgEsQaUX4woi3jiKAfaEMQ8jA1oNk8Pn7uUYt8nMt76m06u9TPZ4t6HdPfnLmYfASXWuRVaf6ZKdyXP9bdNGF6RV3RxvhQc=);whiteSpace=wrap;html=1;strokeWidth=10;fillColor=none;strokeColor=#24b064;points=[[0,0,0,0,0],[1,1,0,0,0]];" vertex="1" parent="1">
          <mxGeometry x="369" y="211.75" width="85" height="82.5" as="geometry" />
        </mxCell>
        <mxCell id="v1HxjldeMUTDakEMhsAY-21" value="&lt;font style=&quot;font-size: 18px;&quot;&gt;&lt;b&gt;Assembly&lt;/b&gt;&lt;/font&gt;" style="text;strokeColor=none;align=center;fillColor=none;html=1;verticalAlign=middle;whiteSpace=wrap;rounded=0;" vertex="1" parent="1">
          <mxGeometry x="176.25" y="135" width="60" height="30" as="geometry" />
        </mxCell>
        <mxCell id="v1HxjldeMUTDakEMhsAY-22" value="" style="endArrow=none;html=1;rounded=0;strokeWidth=10;strokeColor=#ECDC86;exitX=1;exitY=0.5;exitDx=0;exitDy=0;" edge="1" parent="1" source="v1HxjldeMUTDakEMhsAY-2">
          <mxGeometry width="50" height="50" relative="1" as="geometry">
            <mxPoint x="240" y="204" as="sourcePoint" />
            <mxPoint x="610" y="204" as="targetPoint" />
          </mxGeometry>
        </mxCell>
        <mxCell id="v1HxjldeMUTDakEMhsAY-28" value="&lt;font style=&quot;font-size: 18px;&quot;&gt;&lt;b&gt;Read mapping&lt;/b&gt;&lt;/font&gt;" style="text;strokeColor=none;align=center;fillColor=none;html=1;verticalAlign=middle;whiteSpace=wrap;rounded=0;" vertex="1" parent="1">
          <mxGeometry x="480" y="135" width="160" height="30" as="geometry" />
        </mxCell>
        <mxCell id="v1HxjldeMUTDakEMhsAY-35" value="&lt;font style=&quot;font-size: 14px;&quot;&gt;minimap2&lt;/font&gt;" style="text;strokeColor=none;align=center;fillColor=none;html=1;verticalAlign=middle;whiteSpace=wrap;rounded=0;" vertex="1" parent="1">
          <mxGeometry x="585" y="230" width="60" height="30" as="geometry" />
        </mxCell>
        <mxCell id="v1HxjldeMUTDakEMhsAY-37" value="" style="group" vertex="1" connectable="0" parent="1">
          <mxGeometry x="25" y="10.000000000000114" width="90" height="100" as="geometry" />
        </mxCell>
        <mxCell id="v1HxjldeMUTDakEMhsAY-38" value="" style="shape=image;aspect=fixed;image=data:image/svg+xml,PD94bWwgdmVyc2lvbj0iMS4wIiBlbmNvZGluZz0iVVRGLTgiIHN0YW5kYWxvbmU9Im5vIj8+CjwhLS0gQ3JlYXRlZCB3aXRoIElua3NjYXBlIChodHRwOi8vd3d3Lmlua3NjYXBlLm9yZy8pIC0tPgoKPHN2ZwogICB3aWR0aD0iMjMuODEyNTFtbSIKICAgaGVpZ2h0PSIyNi40NTgzNDltbSIKICAgdmlld0JveD0iMCAwIDIzLjgxMjUxIDI2LjQ1ODM0OSIKICAgdmVyc2lvbj0iMS4xIgogICBpZD0ic3ZnNzM2MiIKICAgeG1sbnM9Imh0dHA6Ly93d3cudzMub3JnLzIwMDAvc3ZnIgogICB4bWxuczpzdmc9Imh0dHA6Ly93d3cudzMub3JnLzIwMDAvc3ZnIj4KICA8ZGVmcwogICAgIGlkPSJkZWZzNzM1OSIgLz4KICA8ZwogICAgIGlkPSJsYXllcjEiCiAgICAgc3R5bGU9ImRpc3BsYXk6aW5saW5lIgogICAgIHRyYW5zZm9ybT0idHJhbnNsYXRlKDM3LjA0MTY2NSwtMTY2LjY4NzUpIj4KICAgIDxnCiAgICAgICBpZD0iZzMtNC05IgogICAgICAgdHJhbnNmb3JtPSJ0cmFuc2xhdGUoLTE5MC40OTk5OSw3MS40Mzc1MDUpIgogICAgICAgc3R5bGU9ImRpc3BsYXk6aW5saW5lIj4KICAgICAgPGcKICAgICAgICAgaWQ9ImcxODQ4OC01NC00MS05IgogICAgICAgICB0cmFuc2Zvcm09InRyYW5zbGF0ZSgyNi40NTgzMzIsMi42NDU4NDQpIj4KICAgICAgICA8cGF0aAogICAgICAgICAgIGlkPSJwYXRoNjI3Ni00LTQtNS0yIgogICAgICAgICAgIHN0eWxlPSJmaWxsOiNmZmZmZmY7c3Ryb2tlLXdpZHRoOjAuMjMwNzAyIgogICAgICAgICAgIGQ9Im0gMTMyLjI5MTY2LDkzLjkyNzA3MiB2IDIxLjE2NjY2OCBoIDE1Ljg3NTAxIFYgOTkuMjE4NzQ4IGwgLTUuMjkxNjgsLTUuMjkxNjc2IHoiIC8+CiAgICAgICAgPHBhdGgKICAgICAgICAgICBpZD0icGF0aDU4NjItMS00LTEiCiAgICAgICAgICAgZD0ibSAxNDkuNDg5NTgsOTcuODk1ODMyIGMgMCwtMC4yNjQ1NzYgLTAuMjY0NTgsLTAuNTI5MTY0IC0wLjUyOTE3LC0wLjc5Mzc1MiBsIC00LjQ5NzkxLC0zLjk2ODc0OCBjIC0wLjI2NDU4LC0wLjI2NDU4OCAtMC41MjkxNywtMC41MjkxNjQgLTAuODI3ODgsLTAuNTI5MTY0IGwgLTQuNzI4MzcsLTJlLTUgLTYuNjE0NTksMmUtNSBjIC0wLjc5Mzc1LDJlLTYgLTEuMzIyOTIsMC41MjkxNjQgLTEuMzIyOTIsMS4zMjI5MTYgdiAyMS4xNjY2NjYgYyAwLDAuNzkzNzUgMC41MjkxNywxLjMyMjkyIDEuMzIyOTIsMS4zMjI5MiBoIDcuOTM3NTEgNy45Mzc1IGMgMC43OTM3NCwwIDEuMzIyOTEsLTAuNTI5MTcgMS4zMjI5MSwtMS4zMjI5MiB6IG0gLTEuMzIyOTEsMTcuMTk3OTE4IEggMTMyLjI5MTY2IFYgOTMuOTI3MDg0IGggMTAuNTgzMzMgdiA0Ljc2MjUgYyAwLDAuMzE3NTA4IDAuMjAzNTMsMC41MjkxNjQgMC41MjkxNywwLjUyOTE2NCBoIDQuNzYyNTEgeiIKICAgICAgICAgICBzdHlsZT0ic3Ryb2tlLXdpZHRoOjAuMjMxNjciIC8+CiAgICAgICAgPHBhdGgKICAgICAgICAgICBpZD0icmVjdDE4MzQ3LTItNy04IgogICAgICAgICAgIHN0eWxlPSJmaWxsLXJ1bGU6ZXZlbm9kZDtzdHJva2Utd2lkdGg6MC4xMjIwMjc7cGFpbnQtb3JkZXI6ZmlsbCBtYXJrZXJzIHN0cm9rZSIKICAgICAgICAgICBkPSJtIDEzMS4wMTc1MiwxMDEuODY0NiBoIDE4LjQyMzI2IGMgMC43NTk5MywwIDEuMzcxNzEsMC40OTcwNiAxLjM3MTcxLDEuMTE0NSBsIDFlLTUsMi44NTQyMSAtMWUtNSwyLjg1NDI2IGMgMCwwLjYxNzQ0IC0wLjYxMTc4LDEuMTE0NSAtMS4zNzE3MSwxLjExNDUgaCAtMTguNDIzMjYgYyAtMC43NTk5MiwwIC0xLjM3MTcsLTAuNDk3MDYgLTEuMzcxNywtMS4xMTQ1IHYgLTIuODU0MjUgLTIuODU0MjIgYyAwLC0wLjYxNzQ0IDAuNjExNzgsLTEuMTE0NSAxLjM3MTcsLTEuMTE0NSB6IiAvPgogICAgICAgIDx0ZXh0CiAgICAgICAgICAgeG1sOnNwYWNlPSJwcmVzZXJ2ZSIKICAgICAgICAgICBzdHlsZT0iZm9udC13ZWlnaHQ6Ym9sZDtmb250LXNpemU6NS4yOTE2N3B4O2ZvbnQtZmFtaWx5OidNYXZlbiBQcm8nOy1pbmtzY2FwZS1mb250LXNwZWNpZmljYXRpb246J01hdmVuIFBybywgQm9sZCc7dGV4dC1hbGlnbjpjZW50ZXI7dGV4dC1vcmllbnRhdGlvbjp1cHJpZ2h0O3RleHQtYW5jaG9yOm1pZGRsZTtmaWxsOiNmZmZmZmY7ZmlsbC1vcGFjaXR5OjE7c3Ryb2tlOm5vbmU7c3Ryb2tlLXdpZHRoOjAuMjI3OTUxO3N0cm9rZS1saW5lY2FwOnJvdW5kO3N0cm9rZS1saW5lam9pbjptaXRlcjtzdHJva2UtbWl0ZXJsaW1pdDowLjY7c3Ryb2tlLWRhc2hhcnJheTpub25lO3N0cm9rZS1kYXNob2Zmc2V0OjIuMDAwMDE7c3Ryb2tlLW9wYWNpdHk6MTtwYWludC1vcmRlcjpmaWxsIG1hcmtlcnMgc3Ryb2tlO3N0b3AtY29sb3I6IzAwMDAwMCIKICAgICAgICAgICB4PSIxNDAuMzM4OTYiCiAgICAgICAgICAgeT0iMTA3LjIxMTgiCiAgICAgICAgICAgaWQ9InRleHQxODU2OS02LTgtNCI+PHRzcGFuCiAgICAgICAgICAgICBpZD0idHNwYW4xODU2Ny00Mi02LTEiCiAgICAgICAgICAgICBzdHlsZT0iZmlsbDojZmZmZmZmO2ZpbGwtb3BhY2l0eToxO3N0cm9rZTpub25lO3N0cm9rZS13aWR0aDowLjIyNzk1MSIKICAgICAgICAgICAgIHg9IjE0MC4zMzg5NiIKICAgICAgICAgICAgIHk9IjEwNy4yMTE4Ij5mYXN0cTwvdHNwYW4+PC90ZXh0PgogICAgICA8L2c+CiAgICAgIDxnCiAgICAgICAgIGlkPSJnMTg0ODgtNTQtOC02LTEiCiAgICAgICAgIHRyYW5zZm9ybT0idHJhbnNsYXRlKDIzLjgxMjUwMiw1LjI5MTY2OTUpIj4KICAgICAgICA8cGF0aAogICAgICAgICAgIGlkPSJwYXRoNjI3Ni00LTQtNi03LTUiCiAgICAgICAgICAgc3R5bGU9ImZpbGw6I2ZmZmZmZjtzdHJva2Utd2lkdGg6MC4yMzA3MDIiCiAgICAgICAgICAgZD0ibSAxMzIuMjkxNjYsOTMuOTI3MDcyIHYgMjEuMTY2NjY4IGggMTUuODc1MDEgViA5OS4yMTg3NDggbCAtNS4yOTE2OCwtNS4yOTE2NzYgeiIgLz4KICAgICAgICA8cGF0aAogICAgICAgICAgIGlkPSJwYXRoNTg2Mi0xLTEtMC02IgogICAgICAgICAgIGQ9Im0gMTQ5LjQ4OTU4LDk3Ljg5NTgzMiBjIDAsLTAuMjY0NTc2IC0wLjI2NDU4LC0wLjUyOTE2NCAtMC41MjkxNywtMC43OTM3NTIgbCAtNC40OTc5MSwtMy45Njg3NDggYyAtMC4yNjQ1OCwtMC4yNjQ1ODggLTAuNTI5MTcsLTAuNTI5MTY0IC0wLjgyNzg4LC0wLjUyOTE2NCBoIC0zLjQwNTQ1IC03LjkzNzUxIGMgLTAuNzkzNzUsMCAtMS4zMjI5MiwwLjUyOTE2NCAtMS4zMjI5MiwxLjMyMjkxNiB2IDIxLjE2NjY2NiBjIDAsMC43OTM3NSAwLjUyOTE3LDEuMzIyOTIgMS4zMjI5MiwxLjMyMjkyIGwgOS4yNjA0MiwtMmUtNSA2LjYxNDU5LDJlLTUgYyAwLjc5Mzc0LDAgMS4zMjI5MSwtMC41MjkxNyAxLjMyMjkxLC0xLjMyMjkyIHogbSAtMS4zMjI5MSwxNy4xOTc5MTggSCAxMzIuMjkxNjYgViA5My45MjcwODQgaCAxMC41ODMzMyB2IDQuNzYyNSBjIDAsMC4zMTc1MDggMC4yMDM1MywwLjUyOTE2NCAwLjUyOTE3LDAuNTI5MTY0IGggNC43NjI1MSB6IgogICAgICAgICAgIHN0eWxlPSJzdHJva2Utd2lkdGg6MC4yMzE2NyIgLz4KICAgICAgICA8cGF0aAogICAgICAgICAgIGlkPSJyZWN0MTgzNDctMi01LTAtMiIKICAgICAgICAgICBzdHlsZT0iZmlsbC1ydWxlOmV2ZW5vZGQ7c3Ryb2tlLXdpZHRoOjAuMTIyMDI3O3BhaW50LW9yZGVyOmZpbGwgbWFya2VycyBzdHJva2UiCiAgICAgICAgICAgZD0ibSAxMzEuMDE3NTIsMTAxLjg2NDYgaCAxOC40MjMyNiBjIDAuNzU5OTMsMCAxLjM3MTcxLDAuNDk3MDYgMS4zNzE3MSwxLjExNDUgdiAyLjg1NDIyIDIuODU0MjUgYyAwLDAuNjE3NDQgLTAuNjExNzgsMS4xMTQ1IC0xLjM3MTcxLDEuMTE0NSBoIC0xOC40MjMyNiBjIC0wLjc1OTkyLDAgLTEuMzcxNywtMC40OTcwNiAtMS4zNzE3LC0xLjExNDUgbCAxZS01LC01LjUwMDA4IC0xZS01LC0wLjIwODM5IGMgLTJlLTUsLTAuNjE3NDQgMC42MTE3OCwtMS4xMTQ1IDEuMzcxNywtMS4xMTQ1IHoiIC8+CiAgICAgIDwvZz4KICAgIDwvZz4KICA8L2c+Cjwvc3ZnPgo=;imageBackground=default;" vertex="1" parent="v1HxjldeMUTDakEMhsAY-37">
          <mxGeometry width="90" height="100" as="geometry" />
        </mxCell>
        <mxCell id="v1HxjldeMUTDakEMhsAY-39" value="&lt;font style=&quot;font-size: 20px;&quot; color=&quot;#ffffff&quot; data-font-src=&quot;https://fonts.googleapis.com/css?family=Maven+Pro&quot; face=&quot;Maven Pro&quot;&gt;&lt;b&gt;cram&lt;/b&gt;&lt;/font&gt;" style="text;html=1;strokeColor=none;fillColor=none;align=center;verticalAlign=middle;whiteSpace=wrap;rounded=0;" vertex="1" parent="v1HxjldeMUTDakEMhsAY-37">
          <mxGeometry x="10" y="45" width="60" height="30" as="geometry" />
        </mxCell>
        <mxCell id="v1HxjldeMUTDakEMhsAY-40" value="" style="endArrow=none;html=1;rounded=0;strokeWidth=10;strokeColor=light-dark(#961EFF,#BE5D2B);exitX=1;exitY=0.5;exitDx=0;exitDy=0;" edge="1" parent="1">
          <mxGeometry width="50" height="50" relative="1" as="geometry">
            <mxPoint x="115" y="61" as="sourcePoint" />
            <mxPoint x="590" y="60" as="targetPoint" />
          </mxGeometry>
        </mxCell>
        <mxCell id="v1HxjldeMUTDakEMhsAY-41" value="" style="shape=stencil(vZXdcoMgEIWfhltGlkiSy45N34MaUpkacNAk5u2Dgqn1JzN1sDPeeJb9WM4yLKJJmfFCIIh4WYi0QvQdAVy5kfwztzLYSOZEYHgT7ygFp94m1bIy+lvc5LHyWVJlwsiqidIDit7smuajSaqVshtKrcpfkV7cwrhUNjeqHSxym9z9H4bYCYXd4iwqYVyAOBXBx1JyKCxZr+AnK3TNIzJZyWQczIyhzQFdXs3kf/J4u5rJ4cg/rPA2b1fymSzH0sQqc88fTU7aiC+jL+o4WcxJ5rl7ZV9UXPDm/R0FuvBZX0XfpOGliV750UFyqXoQhhlpBgEsQaUX4woi3jiKAfaEMQ8jA1oNk8Pn7uUYt8nMt76m06u9TPZ4t6HdPfnLmYfASXWuRVaf6ZKdyXP9bdNGF6RV3RxvhQc=);whiteSpace=wrap;html=1;strokeWidth=10;fillColor=none;strokeColor=light-dark(#961EFF,#BE5D2B);points=[[0,0,0,0,0],[1,1,0,0,0]];" vertex="1" parent="1">
          <mxGeometry x="585" y="60" width="75" height="75" as="geometry" />
        </mxCell>
        <mxCell id="v1HxjldeMUTDakEMhsAY-43" value="" style="shape=stencil(vZXdcoMgEIWfhltGlkiSy45N34MaUpkacNAk5u2Dgqn1JzN1sDPeeJb9WM4yLKJJmfFCIIh4WYi0QvQdAVy5kfwztzLYSOZEYHgT7ygFp94m1bIy+lvc5LHyWVJlwsiqidIDit7smuajSaqVshtKrcpfkV7cwrhUNjeqHSxym9z9H4bYCYXd4iwqYVyAOBXBx1JyKCxZr+AnK3TNIzJZyWQczIyhzQFdXs3kf/J4u5rJ4cg/rPA2b1fymSzH0sQqc88fTU7aiC+jL+o4WcxJ5rl7ZV9UXPDm/R0FuvBZX0XfpOGliV750UFyqXoQhhlpBgEsQaUX4woi3jiKAfaEMQ8jA1oNk8Pn7uUYt8nMt76m06u9TPZ4t6HdPfnLmYfASXWuRVaf6ZKdyXP9bdNGF6RV3RxvhQc=);whiteSpace=wrap;html=1;strokeWidth=10;fillColor=none;strokeColor=light-dark(#961EFF,#BE5D2B);points=[[0,0,0,0,0],[1,1,0,0,0]];rotation=-180;" vertex="1" parent="1">
          <mxGeometry x="660" y="130" width="75" height="75" as="geometry" />
        </mxCell>
        <mxCell id="v1HxjldeMUTDakEMhsAY-45" value="&lt;font style=&quot;font-size: 14px;&quot;&gt;bwa-mem2&lt;/font&gt;" style="text;strokeColor=none;align=center;fillColor=none;html=1;verticalAlign=middle;whiteSpace=wrap;rounded=0;" vertex="1" parent="1">
          <mxGeometry x="687" y="160" width="80" height="30" as="geometry" />
        </mxCell>
        <mxCell id="v1HxjldeMUTDakEMhsAY-48" value="" style="shape=image;verticalLabelPosition=bottom;verticalAlign=top;imageAspect=0;aspect=fixed;image=data:image/svg+xml,PHN2ZyB4bWxucz0iaHR0cDovL3d3dy53My5vcmcvMjAwMC9zdmciIGlkPSJzdmc3MzYyIiB2ZXJzaW9uPSIxLjEiIHZpZXdCb3g9IjAgMCA3LjkzNzQ5NjcgNy45Mzc0OTYyIiBoZWlnaHQ9IjcuOTM3NDk2Mm1tIiB3aWR0aD0iNy45Mzc0OTY3bW0iPiYjeGE7ICAmI3hhOyAgICAmI3hhOyAgJiN4YTsgIDxkZWZzIGlkPSJkZWZzNzM1OSIvPiYjeGE7ICA8ZyB0cmFuc2Zvcm09InRyYW5zbGF0ZSgtMy45ODk0MzAzLC0zMy4wNzI5MjEpIiBpZD0ibGF5ZXI1Ij4mI3hhOyAgICA8ZyBpZD0ibGF5ZXI2Ij4mI3hhOyAgICAgIDxjaXJjbGUgcj0iMi42NDU4MzMzIiBjeT0iMzcuMDQxNjY4IiBjeD0iNy45NTgxNzg1IiBpZD0icGF0aDM0NDciIHN0eWxlPSJmaWxsOiNmZmZmZmY7c3Ryb2tlOiMwMDAwMDA7c3Ryb2tlLXdpZHRoOjIuNjQ1ODM7c3Ryb2tlLWxpbmVjYXA6cm91bmQ7c3Ryb2tlLW1pdGVybGltaXQ6NDtzdHJva2UtZGFzaGFycmF5Om5vbmU7cGFpbnQtb3JkZXI6c3Ryb2tlIG1hcmtlcnMgZmlsbDtzdG9wLWNvbG9yOiMwMDAwMDAiLz4mI3hhOyAgICA8L2c+JiN4YTsgIDwvZz4mI3hhOzwvc3ZnPg==" vertex="1" parent="1">
          <mxGeometry x="206.25" y="195" width="30" height="30" as="geometry" />
        </mxCell>
        <mxCell id="v1HxjldeMUTDakEMhsAY-49" value="" style="shape=image;verticalLabelPosition=bottom;verticalAlign=top;imageAspect=0;aspect=fixed;image=data:image/svg+xml,PHN2ZyB4bWxucz0iaHR0cDovL3d3dy53My5vcmcvMjAwMC9zdmciIGlkPSJzdmc3MzYyIiB2ZXJzaW9uPSIxLjEiIHZpZXdCb3g9IjAgMCA3LjkzNzQ5NjcgNy45Mzc0OTYyIiBoZWlnaHQ9IjcuOTM3NDk2Mm1tIiB3aWR0aD0iNy45Mzc0OTY3bW0iPiYjeGE7ICAmI3hhOyAgICAmI3hhOyAgJiN4YTsgIDxkZWZzIGlkPSJkZWZzNzM1OSIvPiYjeGE7ICA8ZyB0cmFuc2Zvcm09InRyYW5zbGF0ZSgtMy45ODk0MzAzLC0zMy4wNzI5MjEpIiBpZD0ibGF5ZXI1Ij4mI3hhOyAgICA8ZyBpZD0ibGF5ZXI2Ij4mI3hhOyAgICAgIDxjaXJjbGUgcj0iMi42NDU4MzMzIiBjeT0iMzcuMDQxNjY4IiBjeD0iNy45NTgxNzg1IiBpZD0icGF0aDM0NDciIHN0eWxlPSJmaWxsOiNmZmZmZmY7c3Ryb2tlOiMwMDAwMDA7c3Ryb2tlLXdpZHRoOjIuNjQ1ODM7c3Ryb2tlLWxpbmVjYXA6cm91bmQ7c3Ryb2tlLW1pdGVybGltaXQ6NDtzdHJva2UtZGFzaGFycmF5Om5vbmU7cGFpbnQtb3JkZXI6c3Ryb2tlIG1hcmtlcnMgZmlsbDtzdG9wLWNvbG9yOiMwMDAwMDAiLz4mI3hhOyAgICA8L2c+JiN4YTsgIDwvZz4mI3hhOzwvc3ZnPg==" vertex="1" parent="1">
          <mxGeometry x="599" y="193" width="30" height="30" as="geometry" />
        </mxCell>
        <mxCell id="v1HxjldeMUTDakEMhsAY-50" value="" style="shape=image;verticalLabelPosition=bottom;verticalAlign=top;imageAspect=0;aspect=fixed;image=data:image/svg+xml,PHN2ZyB4bWxucz0iaHR0cDovL3d3dy53My5vcmcvMjAwMC9zdmciIGlkPSJzdmc3MzYyIiB2ZXJzaW9uPSIxLjEiIHZpZXdCb3g9IjAgMCA3LjkzNzQ5NjcgNy45Mzc0OTYyIiBoZWlnaHQ9IjcuOTM3NDk2Mm1tIiB3aWR0aD0iNy45Mzc0OTY3bW0iPiYjeGE7ICAmI3hhOyAgICAmI3hhOyAgJiN4YTsgIDxkZWZzIGlkPSJkZWZzNzM1OSIvPiYjeGE7ICA8ZyB0cmFuc2Zvcm09InRyYW5zbGF0ZSgtMy45ODk0MzAzLC0zMy4wNzI5MjEpIiBpZD0ibGF5ZXI1Ij4mI3hhOyAgICA8ZyBpZD0ibGF5ZXI2Ij4mI3hhOyAgICAgIDxjaXJjbGUgcj0iMi42NDU4MzMzIiBjeT0iMzcuMDQxNjY4IiBjeD0iNy45NTgxNzg1IiBpZD0icGF0aDM0NDciIHN0eWxlPSJmaWxsOiNmZmZmZmY7c3Ryb2tlOiMwMDAwMDA7c3Ryb2tlLXdpZHRoOjIuNjQ1ODM7c3Ryb2tlLWxpbmVjYXA6cm91bmQ7c3Ryb2tlLW1pdGVybGltaXQ6NDtzdHJva2UtZGFzaGFycmF5Om5vbmU7cGFpbnQtb3JkZXI6c3Ryb2tlIG1hcmtlcnMgZmlsbDtzdG9wLWNvbG9yOiMwMDAwMDAiLz4mI3hhOyAgICA8L2c+JiN4YTsgIDwvZz4mI3hhOzwvc3ZnPg==" vertex="1" parent="1">
          <mxGeometry x="712" y="193" width="30" height="30" as="geometry" />
        </mxCell>
        <mxCell id="v1HxjldeMUTDakEMhsAY-52" value="&lt;div&gt;&lt;font style=&quot;font-size: 14px;&quot;&gt;coverm&lt;/font&gt;&lt;/div&gt;&lt;div&gt;&lt;font style=&quot;font-size: 14px;&quot;&gt;contig&lt;/font&gt;&lt;/div&gt;" style="text;strokeColor=none;align=center;fillColor=none;html=1;verticalAlign=middle;whiteSpace=wrap;rounded=0;" vertex="1" parent="1">
          <mxGeometry x="767" y="230" width="80" height="30" as="geometry" />
        </mxCell>
        <mxCell id="i8tW-RdKxGwg-YplNnFy-5" value="" style="shape=stencil(vZXdcoMgEIWfhltGlkiSy45N34MaUpkacNAk5u2Dgqn1JzN1sDPeeJb9WM4yLKJJmfFCIIh4WYi0QvQdAVy5kfwztzLYSOZEYHgT7ygFp94m1bIy+lvc5LHyWVJlwsiqidIDit7smuajSaqVshtKrcpfkV7cwrhUNjeqHSxym9z9H4bYCYXd4iwqYVyAOBXBx1JyKCxZr+AnK3TNIzJZyWQczIyhzQFdXs3kf/J4u5rJ4cg/rPA2b1fymSzH0sQqc88fTU7aiC+jL+o4WcxJ5rl7ZV9UXPDm/R0FuvBZX0XfpOGliV750UFyqXoQhhlpBgEsQaUX4woi3jiKAfaEMQ8jA1oNk8Pn7uUYt8nMt76m06u9TPZ4t6HdPfnLmYfASXWuRVaf6ZKdyXP9bdNGF6RV3RxvhQc=);whiteSpace=wrap;html=1;strokeWidth=10;fillColor=none;strokeColor=#24b064;points=[[0,0,0,0,0],[1,1,0,0,0]];" vertex="1" parent="1">
          <mxGeometry x="928" y="213.75" width="102" height="107" as="geometry" />
        </mxCell>
        <mxCell id="i8tW-RdKxGwg-YplNnFy-6" value="" style="shape=stencil(vZXdcoMgEIWfhltGlkiSy45N34MaUpkacNAk5u2Dgqn1JzN1sDPeeJb9WM4yLKJJmfFCIIh4WYi0QvQdAVy5kfwztzLYSOZEYHgT7ygFp94m1bIy+lvc5LHyWVJlwsiqidIDit7smuajSaqVshtKrcpfkV7cwrhUNjeqHSxym9z9H4bYCYXd4iwqYVyAOBXBx1JyKCxZr+AnK3TNIzJZyWQczIyhzQFdXs3kf/J4u5rJ4cg/rPA2b1fymSzH0sQqc88fTU7aiC+jL+o4WcxJ5rl7ZV9UXPDm/R0FuvBZX0XfpOGliV750UFyqXoQhhlpBgEsQaUX4woi3jiKAfaEMQ8jA1oNk8Pn7uUYt8nMt76m06u9TPZ4t6HdPfnLmYfASXWuRVaf6ZKdyXP9bdNGF6RV3RxvhQc=);whiteSpace=wrap;html=1;strokeWidth=10;fillColor=none;strokeColor=#3d95fd;points=[[0,0,0,0,0],[1,1,0,0,0]];" vertex="1" parent="1">
          <mxGeometry x="920" y="204" width="118" height="114" as="geometry" />
        </mxCell>
        <mxCell id="v1HxjldeMUTDakEMhsAY-47" value="" style="shape=image;verticalLabelPosition=bottom;verticalAlign=top;imageAspect=0;aspect=fixed;image=data:image/svg+xml,PHN2ZyB4bWxucz0iaHR0cDovL3d3dy53My5vcmcvMjAwMC9zdmciIGlkPSJzdmc3MzYyIiB2ZXJzaW9uPSIxLjEiIHZpZXdCb3g9IjAgMCA3LjkzNzQ5NjcgNy45Mzc0OTYyIiBoZWlnaHQ9IjcuOTM3NDk2Mm1tIiB3aWR0aD0iNy45Mzc0OTY3bW0iPiYjeGE7ICAmI3hhOyAgICAmI3hhOyAgJiN4YTsgIDxkZWZzIGlkPSJkZWZzNzM1OSIvPiYjeGE7ICA8ZyB0cmFuc2Zvcm09InRyYW5zbGF0ZSgtMy45ODk0MzAzLC0zMy4wNzI5MjEpIiBpZD0ibGF5ZXI1Ij4mI3hhOyAgICA8ZyBpZD0ibGF5ZXI2Ij4mI3hhOyAgICAgIDxjaXJjbGUgcj0iMi42NDU4MzMzIiBjeT0iMzcuMDQxNjY4IiBjeD0iNy45NTgxNzg1IiBpZD0icGF0aDM0NDciIHN0eWxlPSJmaWxsOiNmZmZmZmY7c3Ryb2tlOiMwMDAwMDA7c3Ryb2tlLXdpZHRoOjIuNjQ1ODM7c3Ryb2tlLWxpbmVjYXA6cm91bmQ7c3Ryb2tlLW1pdGVybGltaXQ6NDtzdHJva2UtZGFzaGFycmF5Om5vbmU7cGFpbnQtb3JkZXI6c3Ryb2tlIG1hcmtlcnMgZmlsbDtzdG9wLWNvbG9yOiMwMDAwMDAiLz4mI3hhOyAgICA8L2c+JiN4YTsgIDwvZz4mI3hhOzwvc3ZnPg==" vertex="1" parent="1">
          <mxGeometry x="792" y="195" width="30" height="30" as="geometry" />
        </mxCell>
        <mxCell id="i8tW-RdKxGwg-YplNnFy-16" value="" style="endArrow=none;html=1;rounded=0;strokeWidth=10;strokeColor=#3d95fd;entryX=1;entryY=1;entryDx=0;entryDy=0;entryPerimeter=0;" edge="1" parent="1">
          <mxGeometry width="50" height="50" relative="1" as="geometry">
            <mxPoint x="640" y="398" as="sourcePoint" />
            <mxPoint x="922.5500000000002" y="397.6899999999996" as="targetPoint" />
          </mxGeometry>
        </mxCell>
        <mxCell id="i8tW-RdKxGwg-YplNnFy-15" value="" style="endArrow=none;html=1;rounded=0;strokeWidth=10;strokeColor=#24b064;entryX=1;entryY=1;entryDx=0;entryDy=0;entryPerimeter=0;" edge="1" parent="1" target="i8tW-RdKxGwg-YplNnFy-12">
          <mxGeometry width="50" height="50" relative="1" as="geometry">
            <mxPoint x="640" y="388" as="sourcePoint" />
            <mxPoint x="917" y="384" as="targetPoint" />
          </mxGeometry>
        </mxCell>
        <mxCell id="i8tW-RdKxGwg-YplNnFy-17" value="" style="shape=image;verticalLabelPosition=bottom;verticalAlign=top;imageAspect=0;aspect=fixed;image=data:image/svg+xml,PHN2ZyB4bWxucz0iaHR0cDovL3d3dy53My5vcmcvMjAwMC9zdmciIGlkPSJzdmc3MzYyIiB2ZXJzaW9uPSIxLjEiIHZpZXdCb3g9IjAgMCA3LjkzNzQ5NjcgNy45Mzc0OTYyIiBoZWlnaHQ9IjcuOTM3NDk2Mm1tIiB3aWR0aD0iNy45Mzc0OTY3bW0iPiYjeGE7ICAmI3hhOyAgICAmI3hhOyAgJiN4YTsgIDxkZWZzIGlkPSJkZWZzNzM1OSIvPiYjeGE7ICA8ZyB0cmFuc2Zvcm09InRyYW5zbGF0ZSgtMy45ODk0MzAzLC0zMy4wNzI5MjEpIiBpZD0ibGF5ZXI1Ij4mI3hhOyAgICA8ZyBpZD0ibGF5ZXI2Ij4mI3hhOyAgICAgIDxjaXJjbGUgcj0iMi42NDU4MzMzIiBjeT0iMzcuMDQxNjY4IiBjeD0iNy45NTgxNzg1IiBpZD0icGF0aDM0NDciIHN0eWxlPSJmaWxsOiNmZmZmZmY7c3Ryb2tlOiMwMDAwMDA7c3Ryb2tlLXdpZHRoOjIuNjQ1ODM7c3Ryb2tlLWxpbmVjYXA6cm91bmQ7c3Ryb2tlLW1pdGVybGltaXQ6NDtzdHJva2UtZGFzaGFycmF5Om5vbmU7cGFpbnQtb3JkZXI6c3Ryb2tlIG1hcmtlcnMgZmlsbDtzdG9wLWNvbG9yOiMwMDAwMDAiLz4mI3hhOyAgICA8L2c+JiN4YTsgIDwvZz4mI3hhOzwvc3ZnPg==" vertex="1" parent="1">
          <mxGeometry x="887.54" y="377" width="30" height="30" as="geometry" />
        </mxCell>
        <mxCell id="i8tW-RdKxGwg-YplNnFy-20" value="" style="shape=image;verticalLabelPosition=bottom;verticalAlign=top;imageAspect=0;aspect=fixed;image=data:image/svg+xml,PHN2ZyB4bWxucz0iaHR0cDovL3d3dy53My5vcmcvMjAwMC9zdmciIGlkPSJzdmc3MzYyIiB2ZXJzaW9uPSIxLjEiIHZpZXdCb3g9IjAgMCA3LjkzNzQ5NjcgNy45Mzc0OTYyIiBoZWlnaHQ9IjcuOTM3NDk2Mm1tIiB3aWR0aD0iNy45Mzc0OTY3bW0iPiYjeGE7ICAmI3hhOyAgICAmI3hhOyAgJiN4YTsgIDxkZWZzIGlkPSJkZWZzNzM1OSIvPiYjeGE7ICA8ZyB0cmFuc2Zvcm09InRyYW5zbGF0ZSgtMy45ODk0MzAzLC0zMy4wNzI5MjEpIiBpZD0ibGF5ZXI1Ij4mI3hhOyAgICA8ZyBpZD0ibGF5ZXI2Ij4mI3hhOyAgICAgIDxjaXJjbGUgcj0iMi42NDU4MzMzIiBjeT0iMzcuMDQxNjY4IiBjeD0iNy45NTgxNzg1IiBpZD0icGF0aDM0NDciIHN0eWxlPSJmaWxsOiNmZmZmZmY7c3Ryb2tlOiMwMDAwMDA7c3Ryb2tlLXdpZHRoOjIuNjQ1ODM7c3Ryb2tlLWxpbmVjYXA6cm91bmQ7c3Ryb2tlLW1pdGVybGltaXQ6NDtzdHJva2UtZGFzaGFycmF5Om5vbmU7cGFpbnQtb3JkZXI6c3Ryb2tlIG1hcmtlcnMgZmlsbDtzdG9wLWNvbG9yOiMwMDAwMDAiLz4mI3hhOyAgICA8L2c+JiN4YTsgIDwvZz4mI3hhOzwvc3ZnPg==" vertex="1" parent="1">
          <mxGeometry x="804" y="377" width="30" height="30" as="geometry" />
        </mxCell>
        <mxCell id="i8tW-RdKxGwg-YplNnFy-21" value="" style="shape=image;verticalLabelPosition=bottom;verticalAlign=top;imageAspect=0;aspect=fixed;image=data:image/svg+xml,PHN2ZyB4bWxucz0iaHR0cDovL3d3dy53My5vcmcvMjAwMC9zdmciIGlkPSJzdmc3MzYyIiB2ZXJzaW9uPSIxLjEiIHZpZXdCb3g9IjAgMCA3LjkzNzQ5NjcgNy45Mzc0OTYyIiBoZWlnaHQ9IjcuOTM3NDk2Mm1tIiB3aWR0aD0iNy45Mzc0OTY3bW0iPiYjeGE7ICAmI3hhOyAgICAmI3hhOyAgJiN4YTsgIDxkZWZzIGlkPSJkZWZzNzM1OSIvPiYjeGE7ICA8ZyB0cmFuc2Zvcm09InRyYW5zbGF0ZSgtMy45ODk0MzAzLC0zMy4wNzI5MjEpIiBpZD0ibGF5ZXI1Ij4mI3hhOyAgICA8ZyBpZD0ibGF5ZXI2Ij4mI3hhOyAgICAgIDxjaXJjbGUgcj0iMi42NDU4MzMzIiBjeT0iMzcuMDQxNjY4IiBjeD0iNy45NTgxNzg1IiBpZD0icGF0aDM0NDciIHN0eWxlPSJmaWxsOiNmZmZmZmY7c3Ryb2tlOiMwMDAwMDA7c3Ryb2tlLXdpZHRoOjIuNjQ1ODM7c3Ryb2tlLWxpbmVjYXA6cm91bmQ7c3Ryb2tlLW1pdGVybGltaXQ6NDtzdHJva2UtZGFzaGFycmF5Om5vbmU7cGFpbnQtb3JkZXI6c3Ryb2tlIG1hcmtlcnMgZmlsbDtzdG9wLWNvbG9yOiMwMDAwMDAiLz4mI3hhOyAgICA8L2c+JiN4YTsgIDwvZz4mI3hhOzwvc3ZnPg==" vertex="1" parent="1">
          <mxGeometry x="711" y="377" width="30" height="30" as="geometry" />
        </mxCell>
        <mxCell id="i8tW-RdKxGwg-YplNnFy-22" value="" style="shape=image;verticalLabelPosition=bottom;verticalAlign=top;imageAspect=0;aspect=fixed;image=data:image/svg+xml,PHN2ZyB4bWxucz0iaHR0cDovL3d3dy53My5vcmcvMjAwMC9zdmciIGlkPSJzdmc3MzYyIiB2ZXJzaW9uPSIxLjEiIHZpZXdCb3g9IjAgMCA3LjkzNzQ5NjcgNy45Mzc0OTYyIiBoZWlnaHQ9IjcuOTM3NDk2Mm1tIiB3aWR0aD0iNy45Mzc0OTY3bW0iPiYjeGE7ICAmI3hhOyAgICAmI3hhOyAgJiN4YTsgIDxkZWZzIGlkPSJkZWZzNzM1OSIvPiYjeGE7ICA8ZyB0cmFuc2Zvcm09InRyYW5zbGF0ZSgtMy45ODk0MzAzLC0zMy4wNzI5MjEpIiBpZD0ibGF5ZXI1Ij4mI3hhOyAgICA8ZyBpZD0ibGF5ZXI2Ij4mI3hhOyAgICAgIDxjaXJjbGUgcj0iMi42NDU4MzMzIiBjeT0iMzcuMDQxNjY4IiBjeD0iNy45NTgxNzg1IiBpZD0icGF0aDM0NDciIHN0eWxlPSJmaWxsOiNmZmZmZmY7c3Ryb2tlOiMwMDAwMDA7c3Ryb2tlLXdpZHRoOjIuNjQ1ODM7c3Ryb2tlLWxpbmVjYXA6cm91bmQ7c3Ryb2tlLW1pdGVybGltaXQ6NDtzdHJva2UtZGFzaGFycmF5Om5vbmU7cGFpbnQtb3JkZXI6c3Ryb2tlIG1hcmtlcnMgZmlsbDtzdG9wLWNvbG9yOiMwMDAwMDAiLz4mI3hhOyAgICA8L2c+JiN4YTsgIDwvZz4mI3hhOzwvc3ZnPg==" vertex="1" parent="1">
          <mxGeometry x="629" y="378" width="30" height="30" as="geometry" />
        </mxCell>
        <mxCell id="i8tW-RdKxGwg-YplNnFy-23" value="&lt;font style=&quot;font-size: 14px;&quot;&gt;metabat2&lt;/font&gt;" style="text;strokeColor=none;align=center;fillColor=none;html=1;verticalAlign=middle;whiteSpace=wrap;rounded=0;" vertex="1" parent="1">
          <mxGeometry x="872.54" y="414" width="60" height="30" as="geometry" />
        </mxCell>
        <mxCell id="i8tW-RdKxGwg-YplNnFy-24" value="&lt;font style=&quot;font-size: 14px;&quot;&gt;maxbin2&lt;/font&gt;" style="text;strokeColor=none;align=center;fillColor=none;html=1;verticalAlign=middle;whiteSpace=wrap;rounded=0;" vertex="1" parent="1">
          <mxGeometry x="789" y="340" width="60" height="30" as="geometry" />
        </mxCell>
        <mxCell id="i8tW-RdKxGwg-YplNnFy-25" value="&lt;font style=&quot;font-size: 14px;&quot;&gt;bin3C&lt;/font&gt;" style="text;strokeColor=none;align=center;fillColor=none;html=1;verticalAlign=middle;whiteSpace=wrap;rounded=0;" vertex="1" parent="1">
          <mxGeometry x="696" y="414" width="60" height="30" as="geometry" />
        </mxCell>
        <mxCell id="i8tW-RdKxGwg-YplNnFy-26" value="&lt;font style=&quot;font-size: 14px;&quot;&gt;metator&lt;/font&gt;" style="text;strokeColor=none;align=center;fillColor=none;html=1;verticalAlign=middle;whiteSpace=wrap;rounded=0;" vertex="1" parent="1">
          <mxGeometry x="614" y="340" width="60" height="30" as="geometry" />
        </mxCell>
        <mxCell id="i8tW-RdKxGwg-YplNnFy-27" value="&lt;font style=&quot;font-size: 18px;&quot;&gt;&lt;b&gt;Binning&lt;/b&gt;&lt;/font&gt;" style="text;strokeColor=none;align=center;fillColor=none;html=1;verticalAlign=middle;whiteSpace=wrap;rounded=0;" vertex="1" parent="1">
          <mxGeometry x="535" y="310" width="160" height="30" as="geometry" />
        </mxCell>
        <mxCell id="i8tW-RdKxGwg-YplNnFy-28" value="PacBio HiFi reads" style="text;strokeColor=none;align=center;fillColor=none;html=1;verticalAlign=middle;whiteSpace=wrap;rounded=0;" vertex="1" parent="1">
          <mxGeometry x="40" y="260" width="60" height="30" as="geometry" />
        </mxCell>
        <mxCell id="i8tW-RdKxGwg-YplNnFy-29" value="&lt;div&gt;Illumina&lt;/div&gt;&lt;div&gt;Hi-C reads&lt;/div&gt;" style="text;strokeColor=none;align=center;fillColor=none;html=1;verticalAlign=middle;whiteSpace=wrap;rounded=0;" vertex="1" parent="1">
          <mxGeometry x="40" y="116" width="60" height="30" as="geometry" />
        </mxCell>
        <mxCell id="i8tW-RdKxGwg-YplNnFy-31" value="&lt;font style=&quot;font-size: 18px;&quot;&gt;&lt;b&gt;Bin refinement&lt;/b&gt;&lt;/font&gt;" style="text;strokeColor=none;align=center;fillColor=none;html=1;verticalAlign=middle;whiteSpace=wrap;rounded=0;" vertex="1" parent="1">
          <mxGeometry x="141.25" y="310" width="160" height="30" as="geometry" />
        </mxCell>
        <mxCell id="i8tW-RdKxGwg-YplNnFy-33" value="" style="endArrow=none;html=1;rounded=0;strokeWidth=10;strokeColor=#fa6863;" edge="1" parent="1" source="i8tW-RdKxGwg-YplNnFy-34" target="i8tW-RdKxGwg-YplNnFy-32">
          <mxGeometry width="50" height="50" relative="1" as="geometry">
            <mxPoint x="400" y="392" as="sourcePoint" />
            <mxPoint x="640" y="392.58" as="targetPoint" />
          </mxGeometry>
        </mxCell>
        <mxCell id="i8tW-RdKxGwg-YplNnFy-35" value="" style="endArrow=none;html=1;rounded=0;strokeWidth=10;strokeColor=#fa6863;exitX=1;exitY=1;exitDx=0;exitDy=0;exitPerimeter=0;" edge="1" parent="1" source="i8tW-RdKxGwg-YplNnFy-44" target="i8tW-RdKxGwg-YplNnFy-34">
          <mxGeometry width="50" height="50" relative="1" as="geometry">
            <mxPoint x="141" y="392" as="sourcePoint" />
            <mxPoint x="450" y="393" as="targetPoint" />
          </mxGeometry>
        </mxCell>
        <mxCell id="i8tW-RdKxGwg-YplNnFy-36" value="&lt;font style=&quot;font-size: 14px;&quot;&gt;DAS_Tool&lt;/font&gt;" style="text;strokeColor=none;align=center;fillColor=none;html=1;verticalAlign=middle;whiteSpace=wrap;rounded=0;" vertex="1" parent="1">
          <mxGeometry x="273" y="414" width="60" height="30" as="geometry" />
        </mxCell>
        <mxCell id="i8tW-RdKxGwg-YplNnFy-37" value="&lt;font style=&quot;font-size: 14px;&quot;&gt;MagScoT&lt;/font&gt;" style="text;strokeColor=none;align=center;fillColor=none;html=1;verticalAlign=middle;whiteSpace=wrap;rounded=0;" vertex="1" parent="1">
          <mxGeometry x="177" y="414" width="60" height="30" as="geometry" />
        </mxCell>
        <mxCell id="i8tW-RdKxGwg-YplNnFy-38" value="" style="endArrow=none;html=1;rounded=0;strokeWidth=10;strokeColor=#24b064;" edge="1" parent="1">
          <mxGeometry width="50" height="50" relative="1" as="geometry">
            <mxPoint x="454" y="287" as="sourcePoint" />
            <mxPoint x="454" y="360" as="targetPoint" />
          </mxGeometry>
        </mxCell>
        <mxCell id="i8tW-RdKxGwg-YplNnFy-41" value="" style="shape=stencil(nVPBbsMgDP0ajkNgjzU7Tun2H6ylC1oKEaFt9vcjMZ2alkzdLC4828/m2TCs+0Z3hoHQfWc2keGaARx1sPq9TTAkT0MgcgWrZBWhJ0JBcvk0GqF9DP7TnOw25izrGhNsHL34ysRLihkP1hvvXCpovetnngt/ItPWpVwxEJmgIl90k3TrEv/eRBNmKIO3u2nl/2mxTsjSU7De+WA+gj+4bbGZnW1bUuyXjjs9annjOLv3/mguFOJzja6GVq7xo80hEJekZMXheRyuypSyyDlAOTrDwFFIEI/KPIi8JANmTQVXFSbLGbiY8be+peLV6qrpUhtQCIfyG7G47eeO71J5WpWFYaZvuLQGU9rNHk0ofd0J+AY=);whiteSpace=wrap;html=1;fillColor=none;strokeColor=#24b064;strokeWidth=10;rotation=90;" vertex="1" parent="1">
          <mxGeometry x="422" y="389.83" width="74" height="10" as="geometry" />
        </mxCell>
        <mxCell id="i8tW-RdKxGwg-YplNnFy-42" value="" style="endArrow=none;html=1;rounded=0;strokeWidth=10;strokeColor=#fa6863;" edge="1" parent="1" source="i8tW-RdKxGwg-YplNnFy-32" target="i8tW-RdKxGwg-YplNnFy-34">
          <mxGeometry width="50" height="50" relative="1" as="geometry">
            <mxPoint x="400" y="392" as="sourcePoint" />
            <mxPoint x="495" y="392" as="targetPoint" />
          </mxGeometry>
        </mxCell>
        <mxCell id="i8tW-RdKxGwg-YplNnFy-34" value="" style="shape=image;verticalLabelPosition=bottom;verticalAlign=top;imageAspect=0;aspect=fixed;image=data:image/svg+xml,PHN2ZyB4bWxucz0iaHR0cDovL3d3dy53My5vcmcvMjAwMC9zdmciIGlkPSJzdmc3MzYyIiB2ZXJzaW9uPSIxLjEiIHZpZXdCb3g9IjAgMCA3LjkzNzQ5NjcgNy45Mzc0OTYyIiBoZWlnaHQ9IjcuOTM3NDk2Mm1tIiB3aWR0aD0iNy45Mzc0OTY3bW0iPiYjeGE7ICAmI3hhOyAgICAmI3hhOyAgJiN4YTsgIDxkZWZzIGlkPSJkZWZzNzM1OSIvPiYjeGE7ICA8ZyB0cmFuc2Zvcm09InRyYW5zbGF0ZSgtMy45ODk0MzAzLC0zMy4wNzI5MjEpIiBpZD0ibGF5ZXI1Ij4mI3hhOyAgICA8ZyBpZD0ibGF5ZXI2Ij4mI3hhOyAgICAgIDxjaXJjbGUgcj0iMi42NDU4MzMzIiBjeT0iMzcuMDQxNjY4IiBjeD0iNy45NTgxNzg1IiBpZD0icGF0aDM0NDciIHN0eWxlPSJmaWxsOiNmZmZmZmY7c3Ryb2tlOiMwMDAwMDA7c3Ryb2tlLXdpZHRoOjIuNjQ1ODM7c3Ryb2tlLWxpbmVjYXA6cm91bmQ7c3Ryb2tlLW1pdGVybGltaXQ6NDtzdHJva2UtZGFzaGFycmF5Om5vbmU7cGFpbnQtb3JkZXI6c3Ryb2tlIG1hcmtlcnMgZmlsbDtzdG9wLWNvbG9yOiMwMDAwMDAiLz4mI3hhOyAgICA8L2c+JiN4YTsgIDwvZz4mI3hhOzwvc3ZnPg==" vertex="1" parent="1">
          <mxGeometry x="192" y="377" width="30" height="30" as="geometry" />
        </mxCell>
        <mxCell id="i8tW-RdKxGwg-YplNnFy-44" value="" style="shape=stencil(vZXdcoMgEIWfhltGlkiSy45N34MaUpkacNAk5u2Dgqn1JzN1sDPeeJb9WM4yLKJJmfFCIIh4WYi0QvQdAVy5kfwztzLYSOZEYHgT7ygFp94m1bIy+lvc5LHyWVJlwsiqidIDit7smuajSaqVshtKrcpfkV7cwrhUNjeqHSxym9z9H4bYCYXd4iwqYVyAOBXBx1JyKCxZr+AnK3TNIzJZyWQczIyhzQFdXs3kf/J4u5rJ4cg/rPA2b1fymSzH0sQqc88fTU7aiC+jL+o4WcxJ5rl7ZV9UXPDm/R0FuvBZX0XfpOGliV750UFyqXoQhhlpBgEsQaUX4woi3jiKAfaEMQ8jA1oNk8Pn7uUYt8nMt76m06u9TPZ4t6HdPfnLmYfASXWuRVaf6ZKdyXP9bdNGF6RV3RxvhQc=);whiteSpace=wrap;html=1;strokeWidth=10;fillColor=none;strokeColor=#fa6863;points=[[0,0,0,0,0],[1,1,0,0,0]];rotation=-90;" vertex="1" parent="1">
          <mxGeometry x="66.25" y="390.25" width="75" height="77.5" as="geometry" />
        </mxCell>
        <mxCell id="i8tW-RdKxGwg-YplNnFy-45" value="" style="endArrow=none;html=1;rounded=0;strokeWidth=10;strokeColor=#fa6863;" edge="1" parent="1">
          <mxGeometry width="50" height="50" relative="1" as="geometry">
            <mxPoint x="65" y="460" as="sourcePoint" />
            <mxPoint x="65" y="530" as="targetPoint" />
          </mxGeometry>
        </mxCell>
        <mxCell id="i8tW-RdKxGwg-YplNnFy-32" value="" style="shape=image;verticalLabelPosition=bottom;verticalAlign=top;imageAspect=0;aspect=fixed;image=data:image/svg+xml,PHN2ZyB4bWxucz0iaHR0cDovL3d3dy53My5vcmcvMjAwMC9zdmciIGlkPSJzdmc3MzYyIiB2ZXJzaW9uPSIxLjEiIHZpZXdCb3g9IjAgMCA3LjkzNzQ5NjcgNy45Mzc0OTYyIiBoZWlnaHQ9IjcuOTM3NDk2Mm1tIiB3aWR0aD0iNy45Mzc0OTY3bW0iPiYjeGE7ICAmI3hhOyAgICAmI3hhOyAgJiN4YTsgIDxkZWZzIGlkPSJkZWZzNzM1OSIvPiYjeGE7ICA8ZyB0cmFuc2Zvcm09InRyYW5zbGF0ZSgtMy45ODk0MzAzLC0zMy4wNzI5MjEpIiBpZD0ibGF5ZXI1Ij4mI3hhOyAgICA8ZyBpZD0ibGF5ZXI2Ij4mI3hhOyAgICAgIDxjaXJjbGUgcj0iMi42NDU4MzMzIiBjeT0iMzcuMDQxNjY4IiBjeD0iNy45NTgxNzg1IiBpZD0icGF0aDM0NDciIHN0eWxlPSJmaWxsOiNmZmZmZmY7c3Ryb2tlOiMwMDAwMDA7c3Ryb2tlLXdpZHRoOjIuNjQ1ODM7c3Ryb2tlLWxpbmVjYXA6cm91bmQ7c3Ryb2tlLW1pdGVybGltaXQ6NDtzdHJva2UtZGFzaGFycmF5Om5vbmU7cGFpbnQtb3JkZXI6c3Ryb2tlIG1hcmtlcnMgZmlsbDtzdG9wLWNvbG9yOiMwMDAwMDAiLz4mI3hhOyAgICA8L2c+JiN4YTsgIDwvZz4mI3hhOzwvc3ZnPg==" vertex="1" parent="1">
          <mxGeometry x="288" y="377" width="30" height="30" as="geometry" />
        </mxCell>
        <mxCell id="i8tW-RdKxGwg-YplNnFy-47" value="" style="shape=stencil(vZXdcoMgEIWfhltGlkiSy45N34MaUpkacNAk5u2Dgqn1JzN1sDPeeJb9WM4yLKJJmfFCIIh4WYi0QvQdAVy5kfwztzLYSOZEYHgT7ygFp94m1bIy+lvc5LHyWVJlwsiqidIDit7smuajSaqVshtKrcpfkV7cwrhUNjeqHSxym9z9H4bYCYXd4iwqYVyAOBXBx1JyKCxZr+AnK3TNIzJZyWQczIyhzQFdXs3kf/J4u5rJ4cg/rPA2b1fymSzH0sQqc88fTU7aiC+jL+o4WcxJ5rl7ZV9UXPDm/R0FuvBZX0XfpOGliV750UFyqXoQhhlpBgEsQaUX4woi3jiKAfaEMQ8jA1oNk8Pn7uUYt8nMt76m06u9TPZ4t6HdPfnLmYfASXWuRVaf6ZKdyXP9bdNGF6RV3RxvhQc=);whiteSpace=wrap;html=1;strokeWidth=10;fillColor=none;strokeColor=#fa6863;points=[[0,0,0,0,0],[1,1,0,0,0]];rotation=-180;" vertex="1" parent="1">
          <mxGeometry x="65.25" y="636" width="75" height="77.5" as="geometry" />
        </mxCell>
        <mxCell id="i8tW-RdKxGwg-YplNnFy-59" value="&lt;font style=&quot;font-size: 18px;&quot;&gt;&lt;b&gt;Quality assessment&lt;/b&gt;&lt;/font&gt;" style="text;strokeColor=none;align=center;fillColor=none;html=1;verticalAlign=middle;whiteSpace=wrap;rounded=0;" vertex="1" parent="1">
          <mxGeometry x="188.5" y="620" width="196" height="30" as="geometry" />
        </mxCell>
        <mxCell id="i8tW-RdKxGwg-YplNnFy-60" value="" style="endArrow=none;html=1;rounded=0;strokeWidth=10;strokeColor=light-dark(#FA6862,#1A9251);entryX=1;entryY=1;entryDx=0;entryDy=0;entryPerimeter=0;" edge="1" parent="1" target="i8tW-RdKxGwg-YplNnFy-47">
          <mxGeometry width="50" height="50" relative="1" as="geometry">
            <mxPoint x="65" y="520" as="sourcePoint" />
            <mxPoint x="65.25" y="620" as="targetPoint" />
          </mxGeometry>
        </mxCell>
        <mxCell id="i8tW-RdKxGwg-YplNnFy-61" value="" style="shape=stencil(vZXdcoMgEIWfhltGlkiSy45N34MaUpkacNAk5u2Dgqn1JzN1sDPeeJb9WM4yLKJJmfFCIIh4WYi0QvQdAVy5kfwztzLYSOZEYHgT7ygFp94m1bIy+lvc5LHyWVJlwsiqidIDit7smuajSaqVshtKrcpfkV7cwrhUNjeqHSxym9z9H4bYCYXd4iwqYVyAOBXBx1JyKCxZr+AnK3TNIzJZyWQczIyhzQFdXs3kf/J4u5rJ4cg/rPA2b1fymSzH0sQqc88fTU7aiC+jL+o4WcxJ5rl7ZV9UXPDm/R0FuvBZX0XfpOGliV750UFyqXoQhhlpBgEsQaUX4woi3jiKAfaEMQ8jA1oNk8Pn7uUYt8nMt76m06u9TPZ4t6HdPfnLmYfASXWuRVaf6ZKdyXP9bdNGF6RV3RxvhQc=);whiteSpace=wrap;html=1;strokeWidth=10;fillColor=none;strokeColor=light-dark(#24af64, #3480d9);points=[[0,0,0,0,0],[1,1,0,0,0]];rotation=90;" vertex="1" parent="1">
          <mxGeometry x="384.5" y="425.5" width="64" height="75" as="geometry" />
        </mxCell>
        <mxCell id="i8tW-RdKxGwg-YplNnFy-66" value="" style="shape=stencil(vZXdcoMgEIWfhltGlkiSy45N34MaUpkacNAk5u2Dgqn1JzN1sDPeeJb9WM4yLKJJmfFCIIh4WYi0QvQdAVy5kfwztzLYSOZEYHgT7ygFp94m1bIy+lvc5LHyWVJlwsiqidIDit7smuajSaqVshtKrcpfkV7cwrhUNjeqHSxym9z9H4bYCYXd4iwqYVyAOBXBx1JyKCxZr+AnK3TNIzJZyWQczIyhzQFdXs3kf/J4u5rJ4cg/rPA2b1fymSzH0sQqc88fTU7aiC+jL+o4WcxJ5rl7ZV9UXPDm/R0FuvBZX0XfpOGliV750UFyqXoQhhlpBgEsQaUX4woi3jiKAfaEMQ8jA1oNk8Pn7uUYt8nMt76m06u9TPZ4t6HdPfnLmYfASXWuRVaf6ZKdyXP9bdNGF6RV3RxvhQc=);whiteSpace=wrap;html=1;strokeWidth=10;fillColor=none;strokeColor=light-dark(#24af64, #3480d9);points=[[0,0,0,0,0],[1,1,0,0,0]];rotation=-180;" vertex="1" parent="1">
          <mxGeometry x="128" y="628" width="75" height="76" as="geometry" />
        </mxCell>
        <mxCell id="i8tW-RdKxGwg-YplNnFy-62" value="" style="endArrow=none;html=1;rounded=0;strokeWidth=10;strokeColor=#24b064;exitX=1;exitY=0.864;exitDx=0;exitDy=0;exitPerimeter=0;" edge="1" parent="1" source="i8tW-RdKxGwg-YplNnFy-63">
          <mxGeometry width="50" height="50" relative="1" as="geometry">
            <mxPoint x="290" y="495" as="sourcePoint" />
            <mxPoint x="380" y="495" as="targetPoint" />
          </mxGeometry>
        </mxCell>
        <mxCell id="i8tW-RdKxGwg-YplNnFy-63" value="" style="shape=stencil(vZXdcoMgEIWfhltGlkiSy45N34MaUpkacNAk5u2Dgqn1JzN1sDPeeJb9WM4yLKJJmfFCIIh4WYi0QvQdAVy5kfwztzLYSOZEYHgT7ygFp94m1bIy+lvc5LHyWVJlwsiqidIDit7smuajSaqVshtKrcpfkV7cwrhUNjeqHSxym9z9H4bYCYXd4iwqYVyAOBXBx1JyKCxZr+AnK3TNIzJZyWQczIyhzQFdXs3kf/J4u5rJ4cg/rPA2b1fymSzH0sQqc88fTU7aiC+jL+o4WcxJ5rl7ZV9UXPDm/R0FuvBZX0XfpOGliV750UFyqXoQhhlpBgEsQaUX4woi3jiKAfaEMQ8jA1oNk8Pn7uUYt8nMt76m06u9TPZ4t6HdPfnLmYfASXWuRVaf6ZKdyXP9bdNGF6RV3RxvhQc=);whiteSpace=wrap;html=1;strokeWidth=10;fillColor=none;strokeColor=light-dark(#24af64, #3480d9);points=[[0,0,0,0,0],[1,1,0,0,0]];rotation=-90;" vertex="1" parent="1">
          <mxGeometry x="128" y="495" width="75" height="75" as="geometry" />
        </mxCell>
        <mxCell id="i8tW-RdKxGwg-YplNnFy-57" value="" style="endArrow=none;html=1;rounded=0;strokeWidth=10;strokeColor=#fa6863;" edge="1" parent="1">
          <mxGeometry width="50" height="50" relative="1" as="geometry">
            <mxPoint x="130" y="713.5" as="sourcePoint" />
            <mxPoint x="1105" y="714" as="targetPoint" />
          </mxGeometry>
        </mxCell>
        <mxCell id="i8tW-RdKxGwg-YplNnFy-67" value="" style="endArrow=none;html=1;rounded=0;strokeWidth=10;strokeColor=#24b064;" edge="1" parent="1">
          <mxGeometry width="50" height="50" relative="1" as="geometry">
            <mxPoint x="128" y="560" as="sourcePoint" />
            <mxPoint x="128" y="640" as="targetPoint" />
          </mxGeometry>
        </mxCell>
        <mxCell id="i8tW-RdKxGwg-YplNnFy-69" value="" style="endArrow=none;html=1;rounded=0;strokeWidth=10;strokeColor=#24b064;" edge="1" parent="1">
          <mxGeometry width="50" height="50" relative="1" as="geometry">
            <mxPoint x="203" y="704" as="sourcePoint" />
            <mxPoint x="479" y="704" as="targetPoint" />
          </mxGeometry>
        </mxCell>
        <mxCell id="i8tW-RdKxGwg-YplNnFy-70" value="" style="shape=image;verticalLabelPosition=bottom;verticalAlign=top;imageAspect=0;aspect=fixed;image=data:image/svg+xml,PHN2ZyB4bWxucz0iaHR0cDovL3d3dy53My5vcmcvMjAwMC9zdmciIGlkPSJzdmc3MzYyIiB2ZXJzaW9uPSIxLjEiIHZpZXdCb3g9IjAgMCA3LjkzNzQ5NjcgNy45Mzc0OTYyIiBoZWlnaHQ9IjcuOTM3NDk2Mm1tIiB3aWR0aD0iNy45Mzc0OTY3bW0iPiYjeGE7ICAmI3hhOyAgICAmI3hhOyAgJiN4YTsgIDxkZWZzIGlkPSJkZWZzNzM1OSIvPiYjeGE7ICA8ZyB0cmFuc2Zvcm09InRyYW5zbGF0ZSgtMy45ODk0MzAzLC0zMy4wNzI5MjEpIiBpZD0ibGF5ZXI1Ij4mI3hhOyAgICA8ZyBpZD0ibGF5ZXI2Ij4mI3hhOyAgICAgIDxjaXJjbGUgcj0iMi42NDU4MzMzIiBjeT0iMzcuMDQxNjY4IiBjeD0iNy45NTgxNzg1IiBpZD0icGF0aDM0NDciIHN0eWxlPSJmaWxsOiNmZmZmZmY7c3Ryb2tlOiMwMDAwMDA7c3Ryb2tlLXdpZHRoOjIuNjQ1ODM7c3Ryb2tlLWxpbmVjYXA6cm91bmQ7c3Ryb2tlLW1pdGVybGltaXQ6NDtzdHJva2UtZGFzaGFycmF5Om5vbmU7cGFpbnQtb3JkZXI6c3Ryb2tlIG1hcmtlcnMgZmlsbDtzdG9wLWNvbG9yOiMwMDAwMDAiLz4mI3hhOyAgICA8L2c+JiN4YTsgIDwvZz4mI3hhOzwvc3ZnPg==" vertex="1" parent="1">
          <mxGeometry x="216" y="693.75" width="30" height="30" as="geometry" />
        </mxCell>
        <mxCell id="i8tW-RdKxGwg-YplNnFy-71" value="&lt;div&gt;&lt;font style=&quot;font-size: 14px;&quot;&gt;seqkit&lt;/font&gt;&lt;/div&gt;&lt;div&gt;&lt;font style=&quot;font-size: 14px;&quot;&gt;stats&lt;/font&gt;&lt;/div&gt;" style="text;strokeColor=none;align=center;fillColor=none;html=1;verticalAlign=middle;whiteSpace=wrap;rounded=0;" vertex="1" parent="1">
          <mxGeometry x="201" y="659.75" width="60" height="30" as="geometry" />
        </mxCell>
        <mxCell id="i8tW-RdKxGwg-YplNnFy-72" value="" style="shape=image;verticalLabelPosition=bottom;verticalAlign=top;imageAspect=0;aspect=fixed;image=data:image/svg+xml,PHN2ZyB4bWxucz0iaHR0cDovL3d3dy53My5vcmcvMjAwMC9zdmciIGlkPSJzdmc3MzYyIiB2ZXJzaW9uPSIxLjEiIHZpZXdCb3g9IjAgMCA3LjkzNzQ5NjcgNy45Mzc0OTYyIiBoZWlnaHQ9IjcuOTM3NDk2Mm1tIiB3aWR0aD0iNy45Mzc0OTY3bW0iPiYjeGE7ICAmI3hhOyAgICAmI3hhOyAgJiN4YTsgIDxkZWZzIGlkPSJkZWZzNzM1OSIvPiYjeGE7ICA8ZyB0cmFuc2Zvcm09InRyYW5zbGF0ZSgtMy45ODk0MzAzLC0zMy4wNzI5MjEpIiBpZD0ibGF5ZXI1Ij4mI3hhOyAgICA8ZyBpZD0ibGF5ZXI2Ij4mI3hhOyAgICAgIDxjaXJjbGUgcj0iMi42NDU4MzMzIiBjeT0iMzcuMDQxNjY4IiBjeD0iNy45NTgxNzg1IiBpZD0icGF0aDM0NDciIHN0eWxlPSJmaWxsOiNmZmZmZmY7c3Ryb2tlOiMwMDAwMDA7c3Ryb2tlLXdpZHRoOjIuNjQ1ODM7c3Ryb2tlLWxpbmVjYXA6cm91bmQ7c3Ryb2tlLW1pdGVybGltaXQ6NDtzdHJva2UtZGFzaGFycmF5Om5vbmU7cGFpbnQtb3JkZXI6c3Ryb2tlIG1hcmtlcnMgZmlsbDtzdG9wLWNvbG9yOiMwMDAwMDAiLz4mI3hhOyAgICA8L2c+JiN4YTsgIDwvZz4mI3hhOzwvc3ZnPg==" vertex="1" parent="1">
          <mxGeometry x="286" y="694.75" width="30" height="30" as="geometry" />
        </mxCell>
        <mxCell id="i8tW-RdKxGwg-YplNnFy-73" value="&lt;font style=&quot;font-size: 14px;&quot;&gt;count circular contigs&lt;/font&gt;" style="text;strokeColor=none;align=center;fillColor=none;html=1;verticalAlign=middle;whiteSpace=wrap;rounded=0;" vertex="1" parent="1">
          <mxGeometry x="259.5" y="659.75" width="87" height="30" as="geometry" />
        </mxCell>
        <mxCell id="i8tW-RdKxGwg-YplNnFy-75" value="&lt;div&gt;&lt;font style=&quot;font-size: 14px;&quot;&gt;&lt;b&gt;infernal:&lt;/b&gt;&lt;/font&gt;&lt;/div&gt;&lt;div&gt;predict rRNA&lt;/div&gt;" style="text;strokeColor=none;align=center;fillColor=none;html=1;verticalAlign=middle;whiteSpace=wrap;rounded=0;" vertex="1" parent="1">
          <mxGeometry x="376" y="659.75" width="86" height="30" as="geometry" />
        </mxCell>
        <mxCell id="i8tW-RdKxGwg-YplNnFy-77" value="" style="shape=image;verticalLabelPosition=bottom;verticalAlign=top;imageAspect=0;aspect=fixed;image=data:image/svg+xml,PHN2ZyB4bWxucz0iaHR0cDovL3d3dy53My5vcmcvMjAwMC9zdmciIGlkPSJzdmc3MzYyIiB2ZXJzaW9uPSIxLjEiIHZpZXdCb3g9IjAgMCA3LjkzNzQ5NjcgNy45Mzc0OTYyIiBoZWlnaHQ9IjcuOTM3NDk2Mm1tIiB3aWR0aD0iNy45Mzc0OTY3bW0iPiYjeGE7ICAmI3hhOyAgICAmI3hhOyAgJiN4YTsgIDxkZWZzIGlkPSJkZWZzNzM1OSIvPiYjeGE7ICA8ZyB0cmFuc2Zvcm09InRyYW5zbGF0ZSgtMy45ODk0MzAzLC0zMy4wNzI5MjEpIiBpZD0ibGF5ZXI1Ij4mI3hhOyAgICA8ZyBpZD0ibGF5ZXI2Ij4mI3hhOyAgICAgIDxjaXJjbGUgcj0iMi42NDU4MzMzIiBjeT0iMzcuMDQxNjY4IiBjeD0iNy45NTgxNzg1IiBpZD0icGF0aDM0NDciIHN0eWxlPSJmaWxsOiNmZmZmZmY7c3Ryb2tlOiMwMDAwMDA7c3Ryb2tlLXdpZHRoOjIuNjQ1ODM7c3Ryb2tlLWxpbmVjYXA6cm91bmQ7c3Ryb2tlLW1pdGVybGltaXQ6NDtzdHJva2UtZGFzaGFycmF5Om5vbmU7cGFpbnQtb3JkZXI6c3Ryb2tlIG1hcmtlcnMgZmlsbDtzdG9wLWNvbG9yOiMwMDAwMDAiLz4mI3hhOyAgICA8L2c+JiN4YTsgIDwvZz4mI3hhOzwvc3ZnPg==" vertex="1" parent="1">
          <mxGeometry x="462" y="695" width="30" height="30" as="geometry" />
        </mxCell>
        <mxCell id="i8tW-RdKxGwg-YplNnFy-74" value="" style="shape=image;verticalLabelPosition=bottom;verticalAlign=top;imageAspect=0;aspect=fixed;image=data:image/svg+xml,PHN2ZyB4bWxucz0iaHR0cDovL3d3dy53My5vcmcvMjAwMC9zdmciIGlkPSJzdmc3MzYyIiB2ZXJzaW9uPSIxLjEiIHZpZXdCb3g9IjAgMCA3LjkzNzQ5NjcgNy45Mzc0OTYyIiBoZWlnaHQ9IjcuOTM3NDk2Mm1tIiB3aWR0aD0iNy45Mzc0OTY3bW0iPiYjeGE7ICAmI3hhOyAgICAmI3hhOyAgJiN4YTsgIDxkZWZzIGlkPSJkZWZzNzM1OSIvPiYjeGE7ICA8ZyB0cmFuc2Zvcm09InRyYW5zbGF0ZSgtMy45ODk0MzAzLC0zMy4wNzI5MjEpIiBpZD0ibGF5ZXI1Ij4mI3hhOyAgICA8ZyBpZD0ibGF5ZXI2Ij4mI3hhOyAgICAgIDxjaXJjbGUgcj0iMi42NDU4MzMzIiBjeT0iMzcuMDQxNjY4IiBjeD0iNy45NTgxNzg1IiBpZD0icGF0aDM0NDciIHN0eWxlPSJmaWxsOiNmZmZmZmY7c3Ryb2tlOiMwMDAwMDA7c3Ryb2tlLXdpZHRoOjIuNjQ1ODM7c3Ryb2tlLWxpbmVjYXA6cm91bmQ7c3Ryb2tlLW1pdGVybGltaXQ6NDtzdHJva2UtZGFzaGFycmF5Om5vbmU7cGFpbnQtb3JkZXI6c3Ryb2tlIG1hcmtlcnMgZmlsbDtzdG9wLWNvbG9yOiMwMDAwMDAiLz4mI3hhOyAgICA8L2c+JiN4YTsgIDwvZz4mI3hhOzwvc3ZnPg==" vertex="1" parent="1">
          <mxGeometry x="404" y="694.75" width="30" height="30" as="geometry" />
        </mxCell>
        <mxCell id="i8tW-RdKxGwg-YplNnFy-79" value="&lt;b&gt;&lt;font style=&quot;font-size: 14px;&quot;&gt;tRNAScan-SE:&lt;/font&gt;&lt;/b&gt;&lt;br&gt;predict tRNAs" style="text;strokeColor=none;align=center;fillColor=none;html=1;verticalAlign=middle;whiteSpace=wrap;rounded=0;" vertex="1" parent="1">
          <mxGeometry x="425.63" y="730" width="102.75" height="30" as="geometry" />
        </mxCell>
        <mxCell id="i8tW-RdKxGwg-YplNnFy-80" value="" style="shape=image;verticalLabelPosition=bottom;verticalAlign=top;imageAspect=0;aspect=fixed;image=data:image/svg+xml,PHN2ZyB4bWxucz0iaHR0cDovL3d3dy53My5vcmcvMjAwMC9zdmciIGlkPSJzdmc3MzYyIiB2ZXJzaW9uPSIxLjEiIHZpZXdCb3g9IjAgMCA3LjkzNzQ5NjcgNy45Mzc0OTYyIiBoZWlnaHQ9IjcuOTM3NDk2Mm1tIiB3aWR0aD0iNy45Mzc0OTY3bW0iPiYjeGE7ICAmI3hhOyAgICAmI3hhOyAgJiN4YTsgIDxkZWZzIGlkPSJkZWZzNzM1OSIvPiYjeGE7ICA8ZyB0cmFuc2Zvcm09InRyYW5zbGF0ZSgtMy45ODk0MzAzLC0zMy4wNzI5MjEpIiBpZD0ibGF5ZXI1Ij4mI3hhOyAgICA8ZyBpZD0ibGF5ZXI2Ij4mI3hhOyAgICAgIDxjaXJjbGUgcj0iMi42NDU4MzMzIiBjeT0iMzcuMDQxNjY4IiBjeD0iNy45NTgxNzg1IiBpZD0icGF0aDM0NDciIHN0eWxlPSJmaWxsOiNmZmZmZmY7c3Ryb2tlOiMwMDAwMDA7c3Ryb2tlLXdpZHRoOjIuNjQ1ODM7c3Ryb2tlLWxpbmVjYXA6cm91bmQ7c3Ryb2tlLW1pdGVybGltaXQ6NDtzdHJva2UtZGFzaGFycmF5Om5vbmU7cGFpbnQtb3JkZXI6c3Ryb2tlIG1hcmtlcnMgZmlsbDtzdG9wLWNvbG9yOiMwMDAwMDAiLz4mI3hhOyAgICA8L2c+JiN4YTsgIDwvZz4mI3hhOzwvc3ZnPg==" vertex="1" parent="1">
          <mxGeometry x="552" y="699" width="30" height="30" as="geometry" />
        </mxCell>
        <mxCell id="i8tW-RdKxGwg-YplNnFy-82" value="&lt;font style=&quot;font-size: 14px;&quot;&gt;CheckM2&lt;/font&gt;" style="text;strokeColor=none;align=center;fillColor=none;html=1;verticalAlign=middle;whiteSpace=wrap;rounded=0;" vertex="1" parent="1">
          <mxGeometry x="523.5" y="670" width="87" height="30" as="geometry" />
        </mxCell>
        <mxCell id="i8tW-RdKxGwg-YplNnFy-83" value="" style="shape=image;verticalLabelPosition=bottom;verticalAlign=top;imageAspect=0;aspect=0;image=data:image/svg+xml,PHN2ZyB4bWxucz0iaHR0cDovL3d3dy53My5vcmcvMjAwMC9zdmciIGlkPSJzdmc3MzYyIiB2ZXJzaW9uPSIxLjEiIHZpZXdCb3g9IjAgMCAyLjY0NTgyODIgNy45Mzc1IiBoZWlnaHQ9IjcuOTM3NW1tIiB3aWR0aD0iMi42NDU4MjgybW0iPiYjeGE7ICA8ZGVmcyBpZD0iZGVmczczNTkiLz4mI3hhOyAgPGcgdHJhbnNmb3JtPSJ0cmFuc2xhdGUoLTEwOC40NzkxNiwtNTIuOTE2NjY2KSIgaWQ9ImxheWVyOSI+JiN4YTsgICAgPHBhdGggaWQ9InBhdGgyNTAwLTUtMjItMi03IiBkPSJtIDEwOS44MDIwOCw1Mi45MTY2NjYgdiA3LjkzNzUiIHN0eWxlPSJmaWxsOm5vbmU7c3Ryb2tlOiMwMDAwMDA7c3Ryb2tlLXdpZHRoOjIuNjQ1ODM7c3Ryb2tlLWxpbmVjYXA6YnV0dDtzdHJva2UtbGluZWpvaW46bWl0ZXI7c3Ryb2tlLW1pdGVybGltaXQ6NDtzdHJva2UtZGFzaGFycmF5Om5vbmU7c3Ryb2tlLW9wYWNpdHk6MSIvPiYjeGE7ICA8L2c+JiN4YTs8L3N2Zz4=;points=[[0,0,0,0,0],[0,0.25,0,0,0],[0,0.5,0,0,0],[0,0.75,0,0,0],[0,1,0,0,0],[1,0,0,0,0],[1,0.25,0,0,0],[1,0.5,0,0,0],[1,0.75,0,0,0],[1,1,0,0,0]];" vertex="1" parent="1">
          <mxGeometry x="1102" y="699" width="10" height="30" as="geometry" />
        </mxCell>
        <mxCell id="i8tW-RdKxGwg-YplNnFy-85" value="&lt;font style=&quot;font-size: 18px;&quot;&gt;&lt;b&gt;Taxonomic classification&lt;/b&gt;&lt;/font&gt;" style="text;strokeColor=none;align=center;fillColor=none;html=1;verticalAlign=middle;whiteSpace=wrap;rounded=0;" vertex="1" parent="1">
          <mxGeometry x="640" y="620" width="160" height="50" as="geometry" />
        </mxCell>
        <mxCell id="i8tW-RdKxGwg-YplNnFy-87" value="&lt;font style=&quot;font-size: 14px;&quot;&gt;GTDB-Tk&lt;/font&gt;" style="text;strokeColor=none;align=center;fillColor=none;html=1;verticalAlign=middle;whiteSpace=wrap;rounded=0;" vertex="1" parent="1">
          <mxGeometry x="663.25" y="740" width="95.5" height="30" as="geometry" />
        </mxCell>
        <mxCell id="i8tW-RdKxGwg-YplNnFy-88" value="" style="shape=image;verticalLabelPosition=bottom;verticalAlign=top;imageAspect=0;aspect=fixed;image=data:image/svg+xml,PHN2ZyB4bWxucz0iaHR0cDovL3d3dy53My5vcmcvMjAwMC9zdmciIGlkPSJzdmc3MzYyIiB2ZXJzaW9uPSIxLjEiIHZpZXdCb3g9IjAgMCA3LjkzNzQ5NjcgNy45Mzc0OTYyIiBoZWlnaHQ9IjcuOTM3NDk2Mm1tIiB3aWR0aD0iNy45Mzc0OTY3bW0iPiYjeGE7ICAmI3hhOyAgICAmI3hhOyAgJiN4YTsgIDxkZWZzIGlkPSJkZWZzNzM1OSIvPiYjeGE7ICA8ZyB0cmFuc2Zvcm09InRyYW5zbGF0ZSgtMy45ODk0MzAzLC0zMy4wNzI5MjEpIiBpZD0ibGF5ZXI1Ij4mI3hhOyAgICA8ZyBpZD0ibGF5ZXI2Ij4mI3hhOyAgICAgIDxjaXJjbGUgcj0iMi42NDU4MzMzIiBjeT0iMzcuMDQxNjY4IiBjeD0iNy45NTgxNzg1IiBpZD0icGF0aDM0NDciIHN0eWxlPSJmaWxsOiNmZmZmZmY7c3Ryb2tlOiMwMDAwMDA7c3Ryb2tlLXdpZHRoOjIuNjQ1ODM7c3Ryb2tlLWxpbmVjYXA6cm91bmQ7c3Ryb2tlLW1pdGVybGltaXQ6NDtzdHJva2UtZGFzaGFycmF5Om5vbmU7cGFpbnQtb3JkZXI6c3Ryb2tlIG1hcmtlcnMgZmlsbDtzdG9wLWNvbG9yOiMwMDAwMDAiLz4mI3hhOyAgICA8L2c+JiN4YTsgIDwvZz4mI3hhOzwvc3ZnPg==" vertex="1" parent="1">
          <mxGeometry x="774" y="697.75" width="30" height="30" as="geometry" />
        </mxCell>
        <mxCell id="i8tW-RdKxGwg-YplNnFy-86" value="" style="shape=image;verticalLabelPosition=bottom;verticalAlign=top;imageAspect=0;aspect=fixed;image=data:image/svg+xml,PHN2ZyB4bWxucz0iaHR0cDovL3d3dy53My5vcmcvMjAwMC9zdmciIGlkPSJzdmc3MzYyIiB2ZXJzaW9uPSIxLjEiIHZpZXdCb3g9IjAgMCA3LjkzNzQ5NjcgNy45Mzc0OTYyIiBoZWlnaHQ9IjcuOTM3NDk2Mm1tIiB3aWR0aD0iNy45Mzc0OTY3bW0iPiYjeGE7ICAmI3hhOyAgICAmI3hhOyAgJiN4YTsgIDxkZWZzIGlkPSJkZWZzNzM1OSIvPiYjeGE7ICA8ZyB0cmFuc2Zvcm09InRyYW5zbGF0ZSgtMy45ODk0MzAzLC0zMy4wNzI5MjEpIiBpZD0ibGF5ZXI1Ij4mI3hhOyAgICA8ZyBpZD0ibGF5ZXI2Ij4mI3hhOyAgICAgIDxjaXJjbGUgcj0iMi42NDU4MzMzIiBjeT0iMzcuMDQxNjY4IiBjeD0iNy45NTgxNzg1IiBpZD0icGF0aDM0NDciIHN0eWxlPSJmaWxsOiNmZmZmZmY7c3Ryb2tlOiMwMDAwMDA7c3Ryb2tlLXdpZHRoOjIuNjQ1ODM7c3Ryb2tlLWxpbmVjYXA6cm91bmQ7c3Ryb2tlLW1pdGVybGltaXQ6NDtzdHJva2UtZGFzaGFycmF5Om5vbmU7cGFpbnQtb3JkZXI6c3Ryb2tlIG1hcmtlcnMgZmlsbDtzdG9wLWNvbG9yOiMwMDAwMDAiLz4mI3hhOyAgICA8L2c+JiN4YTsgIDwvZz4mI3hhOzwvc3ZnPg==" vertex="1" parent="1">
          <mxGeometry x="696" y="698" width="30" height="30" as="geometry" />
        </mxCell>
        <mxCell id="i8tW-RdKxGwg-YplNnFy-90" value="&lt;font style=&quot;font-size: 14px;&quot;&gt;TaxonKit&lt;/font&gt;" style="text;strokeColor=none;align=center;fillColor=none;html=1;verticalAlign=middle;whiteSpace=wrap;rounded=0;" vertex="1" parent="1">
          <mxGeometry x="742" y="740" width="95.5" height="30" as="geometry" />
        </mxCell>
        <mxCell id="i8tW-RdKxGwg-YplNnFy-91" value="" style="shape=image;verticalLabelPosition=bottom;verticalAlign=top;imageAspect=0;aspect=fixed;image=data:image/svg+xml,PHN2ZyB4bWxucz0iaHR0cDovL3d3dy53My5vcmcvMjAwMC9zdmciIGlkPSJzdmc3MzYyIiB2ZXJzaW9uPSIxLjEiIHZpZXdCb3g9IjAgMCA3LjkzNzQ5NjcgNy45Mzc0OTYyIiBoZWlnaHQ9IjcuOTM3NDk2Mm1tIiB3aWR0aD0iNy45Mzc0OTY3bW0iPiYjeGE7ICAmI3hhOyAgICAmI3hhOyAgJiN4YTsgIDxkZWZzIGlkPSJkZWZzNzM1OSIvPiYjeGE7ICA8ZyB0cmFuc2Zvcm09InRyYW5zbGF0ZSgtMy45ODk0MzAzLC0zMy4wNzI5MjEpIiBpZD0ibGF5ZXI1Ij4mI3hhOyAgICA8ZyBpZD0ibGF5ZXI2Ij4mI3hhOyAgICAgIDxjaXJjbGUgcj0iMi42NDU4MzMzIiBjeT0iMzcuMDQxNjY4IiBjeD0iNy45NTgxNzg1IiBpZD0icGF0aDM0NDciIHN0eWxlPSJmaWxsOiNmZmZmZmY7c3Ryb2tlOiMwMDAwMDA7c3Ryb2tlLXdpZHRoOjIuNjQ1ODM7c3Ryb2tlLWxpbmVjYXA6cm91bmQ7c3Ryb2tlLW1pdGVybGltaXQ6NDtzdHJva2UtZGFzaGFycmF5Om5vbmU7cGFpbnQtb3JkZXI6c3Ryb2tlIG1hcmtlcnMgZmlsbDtzdG9wLWNvbG9yOiMwMDAwMDAiLz4mI3hhOyAgICA8L2c+JiN4YTsgIDwvZz4mI3hhOzwvc3ZnPg==" vertex="1" parent="1">
          <mxGeometry x="910" y="697.75" width="30" height="30" as="geometry" />
        </mxCell>
        <mxCell id="i8tW-RdKxGwg-YplNnFy-93" value="&lt;font style=&quot;font-size: 14px;&quot;&gt;Bin-level summary&lt;/font&gt;" style="text;strokeColor=none;align=center;fillColor=none;html=1;verticalAlign=middle;whiteSpace=wrap;rounded=0;" vertex="1" parent="1">
          <mxGeometry x="877.25" y="740" width="95.5" height="30" as="geometry" />
        </mxCell>
        <mxCell id="i8tW-RdKxGwg-YplNnFy-95" value="&lt;font style=&quot;font-size: 18px;&quot;&gt;&lt;b&gt;Summary&lt;/b&gt;&lt;/font&gt;" style="text;strokeColor=none;align=center;fillColor=none;html=1;verticalAlign=middle;whiteSpace=wrap;rounded=0;" vertex="1" parent="1">
          <mxGeometry x="850" y="620" width="160" height="30" as="geometry" />
        </mxCell>
        <mxCell id="i8tW-RdKxGwg-YplNnFy-102" value="&lt;h1 align=&quot;right&quot; style=&quot;margin-top: 0px;&quot;&gt;&lt;font style=&quot;font-size: 26px;&quot;&gt;sanger-tol/ metagenomeassembly&lt;/font&gt;&lt;/h1&gt;&lt;p align=&quot;right&quot;&gt;&lt;font style=&quot;font-size: 14px;&quot;&gt;A pipeline for single-sample assembly and binning of metagenomes using PacBio HiFi reads and Illumina Hi-C data.&lt;/font&gt;&lt;/p&gt;" style="text;html=1;whiteSpace=wrap;overflow=hidden;rounded=0;" vertex="1" parent="1">
          <mxGeometry x="860" y="5" width="300" height="135" as="geometry" />
        </mxCell>
        <mxCell id="i8tW-RdKxGwg-YplNnFy-117" value="" style="shape=image;verticalLabelPosition=bottom;verticalAlign=top;imageAspect=0;aspect=fixed;image=data:image/svg+xml,PHN2ZyB4bWxucz0iaHR0cDovL3d3dy53My5vcmcvMjAwMC9zdmciIGlkPSJzdmc3MzYyIiB2ZXJzaW9uPSIxLjEiIHZpZXdCb3g9IjAgMCA3LjkzNzQ5NjcgNy45Mzc0OTYyIiBoZWlnaHQ9IjcuOTM3NDk2Mm1tIiB3aWR0aD0iNy45Mzc0OTY3bW0iPiYjeGE7ICAmI3hhOyAgICAmI3hhOyAgJiN4YTsgIDxkZWZzIGlkPSJkZWZzNzM1OSIvPiYjeGE7ICA8ZyB0cmFuc2Zvcm09InRyYW5zbGF0ZSgtMy45ODk0MzAzLC0zMy4wNzI5MjEpIiBpZD0ibGF5ZXI1Ij4mI3hhOyAgICA8ZyBpZD0ibGF5ZXI2Ij4mI3hhOyAgICAgIDxjaXJjbGUgcj0iMi42NDU4MzMzIiBjeT0iMzcuMDQxNjY4IiBjeD0iNy45NTgxNzg1IiBpZD0icGF0aDM0NDciIHN0eWxlPSJmaWxsOiNmZmZmZmY7c3Ryb2tlOiMwMDAwMDA7c3Ryb2tlLXdpZHRoOjIuNjQ1ODM7c3Ryb2tlLWxpbmVjYXA6cm91bmQ7c3Ryb2tlLW1pdGVybGltaXQ6NDtzdHJva2UtZGFzaGFycmF5Om5vbmU7cGFpbnQtb3JkZXI6c3Ryb2tlIG1hcmtlcnMgZmlsbDtzdG9wLWNvbG9yOiMwMDAwMDAiLz4mI3hhOyAgICA8L2c+JiN4YTsgIDwvZz4mI3hhOzwvc3ZnPg==" vertex="1" parent="1">
          <mxGeometry x="990" y="699" width="30" height="30" as="geometry" />
        </mxCell>
        <mxCell id="i8tW-RdKxGwg-YplNnFy-119" value="&lt;font style=&quot;font-size: 14px;&quot;&gt;Aggregated summary&lt;/font&gt;" style="text;strokeColor=none;align=center;fillColor=none;html=1;verticalAlign=middle;whiteSpace=wrap;rounded=0;" vertex="1" parent="1">
          <mxGeometry x="957.25" y="740" width="95.5" height="30" as="geometry" />
        </mxCell>
        <mxCell id="i8tW-RdKxGwg-YplNnFy-14" value="" style="shape=stencil(vZXdcoMgEIWfhltGlkiSy45N34MaUpkacNAk5u2Dgqn1JzN1sDPeeJb9WM4yLKJJmfFCIIh4WYi0QvQdAVy5kfwztzLYSOZEYHgT7ygFp94m1bIy+lvc5LHyWVJlwsiqidIDit7smuajSaqVshtKrcpfkV7cwrhUNjeqHSxym9z9H4bYCYXd4iwqYVyAOBXBx1JyKCxZr+AnK3TNIzJZyWQczIyhzQFdXs3kf/J4u5rJ4cg/rPA2b1fymSzH0sQqc88fTU7aiC+jL+o4WcxJ5rl7ZV9UXPDm/R0FuvBZX0XfpOGliV750UFyqXoQhhlpBgEsQaUX4woi3jiKAfaEMQ8jA1oNk8Pn7uUYt8nMt76m06u9TPZ4t6HdPfnLmYfASXWuRVaf6ZKdyXP9bdNGF6RV3RxvhQc=);whiteSpace=wrap;html=1;strokeWidth=10;fillColor=none;strokeColor=#3d95fd;points=[[0,0,0,0,0],[1,1,0,0,0]];rotation=90;" vertex="1" parent="1">
          <mxGeometry x="925.65" y="285.25" width="109.45" height="115.64" as="geometry" />
        </mxCell>
        <mxCell id="i8tW-RdKxGwg-YplNnFy-124" value="" style="group" connectable="0" vertex="1" parent="1">
          <mxGeometry x="520" y="480" width="530" height="115.5" as="geometry" />
        </mxCell>
        <mxCell id="i8tW-RdKxGwg-YplNnFy-112" value="" style="group" connectable="0" vertex="1" parent="i8tW-RdKxGwg-YplNnFy-124">
          <mxGeometry y="30" width="530" height="85.5" as="geometry" />
        </mxCell>
        <mxCell id="i8tW-RdKxGwg-YplNnFy-103" value="" style="group" connectable="0" vertex="1" parent="i8tW-RdKxGwg-YplNnFy-112">
          <mxGeometry y="15.5" width="530" height="70" as="geometry" />
        </mxCell>
        <mxCell id="i8tW-RdKxGwg-YplNnFy-96" value="" style="endArrow=none;html=1;rounded=0;strokeWidth=10;strokeColor=light-dark(#961EFF,#BE5D2B);" edge="1" parent="i8tW-RdKxGwg-YplNnFy-103">
          <mxGeometry width="50" height="50" relative="1" as="geometry">
            <mxPoint as="sourcePoint" />
            <mxPoint x="80" as="targetPoint" />
          </mxGeometry>
        </mxCell>
        <mxCell id="i8tW-RdKxGwg-YplNnFy-97" value="" style="endArrow=none;html=1;rounded=0;strokeWidth=10;strokeColor=light-dark(#ecdc86, #1a9251);" edge="1" parent="i8tW-RdKxGwg-YplNnFy-103">
          <mxGeometry width="50" height="50" relative="1" as="geometry">
            <mxPoint y="20" as="sourcePoint" />
            <mxPoint x="80" y="20" as="targetPoint" />
          </mxGeometry>
        </mxCell>
        <mxCell id="i8tW-RdKxGwg-YplNnFy-98" value="" style="endArrow=none;html=1;rounded=0;strokeWidth=10;strokeColor=#24b064;fontStyle=1" edge="1" parent="i8tW-RdKxGwg-YplNnFy-103">
          <mxGeometry width="50" height="50" relative="1" as="geometry">
            <mxPoint y="40" as="sourcePoint" />
            <mxPoint x="80" y="40" as="targetPoint" />
          </mxGeometry>
        </mxCell>
        <mxCell id="i8tW-RdKxGwg-YplNnFy-104" value="Hi-C reads" style="text;html=1;align=center;verticalAlign=middle;whiteSpace=wrap;rounded=0;" vertex="1" parent="i8tW-RdKxGwg-YplNnFy-103">
          <mxGeometry x="95" y="-14" width="60" height="30" as="geometry" />
        </mxCell>
        <mxCell id="i8tW-RdKxGwg-YplNnFy-105" value="PacBio HiFi reads" style="text;html=1;align=center;verticalAlign=middle;whiteSpace=wrap;rounded=0;" vertex="1" parent="i8tW-RdKxGwg-YplNnFy-103">
          <mxGeometry x="95" y="5" width="100.73" height="30" as="geometry" />
        </mxCell>
        <mxCell id="i8tW-RdKxGwg-YplNnFy-109" value="Assembled contigs" style="text;html=1;align=center;verticalAlign=middle;whiteSpace=wrap;rounded=0;" vertex="1" parent="i8tW-RdKxGwg-YplNnFy-103">
          <mxGeometry x="88.86" y="25" width="115" height="30" as="geometry" />
        </mxCell>
        <mxCell id="i8tW-RdKxGwg-YplNnFy-126" value="" style="rounded=0;whiteSpace=wrap;html=1;strokeColor=default;strokeWidth=2;align=center;verticalAlign=middle;fontFamily=Helvetica;fontSize=12;fontColor=default;fillColor=none;" vertex="1" parent="i8tW-RdKxGwg-YplNnFy-103">
          <mxGeometry x="-20" y="-55" width="550" height="125" as="geometry" />
        </mxCell>
        <mxCell id="i8tW-RdKxGwg-YplNnFy-101" value="" style="endArrow=none;html=1;rounded=0;strokeWidth=10;strokeColor=light-dark(#fa6762, #1a9251);fontStyle=1" edge="1" parent="i8tW-RdKxGwg-YplNnFy-112">
          <mxGeometry width="50" height="50" relative="1" as="geometry">
            <mxPoint x="215" y="34.90999999999997" as="sourcePoint" />
            <mxPoint x="295" y="34.90999999999997" as="targetPoint" />
          </mxGeometry>
        </mxCell>
        <mxCell id="i8tW-RdKxGwg-YplNnFy-100" value="" style="endArrow=none;html=1;rounded=0;strokeWidth=10;strokeColor=light-dark(#3c94fc, #1a9251);fontStyle=1" edge="1" parent="i8tW-RdKxGwg-YplNnFy-112">
          <mxGeometry width="50" height="50" relative="1" as="geometry">
            <mxPoint x="215" y="15.5" as="sourcePoint" />
            <mxPoint x="295" y="15.5" as="targetPoint" />
          </mxGeometry>
        </mxCell>
        <mxCell id="i8tW-RdKxGwg-YplNnFy-110" value="Mapped reads / Hi-C contact maps" style="text;html=1;align=center;verticalAlign=middle;whiteSpace=wrap;rounded=0;" vertex="1" parent="i8tW-RdKxGwg-YplNnFy-112">
          <mxGeometry x="298.53999999999996" width="196.46" height="30" as="geometry" />
        </mxCell>
        <mxCell id="i8tW-RdKxGwg-YplNnFy-111" value="Genome bins" style="text;html=1;align=center;verticalAlign=middle;whiteSpace=wrap;rounded=0;" vertex="1" parent="i8tW-RdKxGwg-YplNnFy-112">
          <mxGeometry x="297" y="20" width="86" height="30" as="geometry" />
        </mxCell>
        <mxCell id="i8tW-RdKxGwg-YplNnFy-121" value="&lt;b&gt;&lt;font style=&quot;font-size: 20px;&quot;&gt;Legend&lt;/font&gt;&lt;/b&gt;" style="text;html=1;align=center;verticalAlign=middle;whiteSpace=wrap;rounded=0;" vertex="1" parent="i8tW-RdKxGwg-YplNnFy-124">
          <mxGeometry x="5" width="60" height="30" as="geometry" />
        </mxCell>
        <mxCell id="oxCKCiYLUOf6d1FbXTnj-6" value="" style="shape=image;verticalLabelPosition=bottom;verticalAlign=top;imageAspect=0;aspect=fixed;image=data:image/svg+xml,PHN2ZyB4bWxucz0iaHR0cDovL3d3dy53My5vcmcvMjAwMC9zdmciIGlkPSJzdmc3MzYyIiB2ZXJzaW9uPSIxLjEiIHZpZXdCb3g9IjAgMCA3LjkzNzQ5NjcgNy45Mzc0OTYyIiBoZWlnaHQ9IjcuOTM3NDk2Mm1tIiB3aWR0aD0iNy45Mzc0OTY3bW0iPiYjeGE7ICAmI3hhOyAgICAmI3hhOyAgJiN4YTsgIDxkZWZzIGlkPSJkZWZzNzM1OSIvPiYjeGE7ICA8ZyB0cmFuc2Zvcm09InRyYW5zbGF0ZSgtMy45ODk0MzAzLC0zMy4wNzI5MjEpIiBpZD0ibGF5ZXI1Ij4mI3hhOyAgICA8ZyBpZD0ibGF5ZXI2Ij4mI3hhOyAgICAgIDxjaXJjbGUgcj0iMi42NDU4MzMzIiBjeT0iMzcuMDQxNjY4IiBjeD0iNy45NTgxNzg1IiBpZD0icGF0aDM0NDciIHN0eWxlPSJmaWxsOiNmZmZmZmY7c3Ryb2tlOiMwMDAwMDA7c3Ryb2tlLXdpZHRoOjIuNjQ1ODM7c3Ryb2tlLWxpbmVjYXA6cm91bmQ7c3Ryb2tlLW1pdGVybGltaXQ6NDtzdHJva2UtZGFzaGFycmF5Om5vbmU7cGFpbnQtb3JkZXI6c3Ryb2tlIG1hcmtlcnMgZmlsbDtzdG9wLWNvbG9yOiMwMDAwMDAiLz4mI3hhOyAgICA8L2c+JiN4YTsgIDwvZz4mI3hhOzwvc3ZnPg==" vertex="1" parent="1">
          <mxGeometry x="339" y="694.75" width="30" height="30" as="geometry" />
        </mxCell>
        <mxCell id="oxCKCiYLUOf6d1FbXTnj-7" value="&lt;b&gt;genomad:&lt;/b&gt;&lt;div&gt;predict plasmids&lt;/div&gt;" style="text;strokeColor=none;align=center;fillColor=none;html=1;verticalAlign=middle;whiteSpace=wrap;rounded=0;" vertex="1" parent="1">
          <mxGeometry x="307" y="730" width="94" height="30" as="geometry" />
        </mxCell>
      </root>
    </mxGraphModel>
  </diagram>
</mxfile>
